<?xml version="1.0" encoding="UTF-8"?>
<svg xmlns="http://www.w3.org/2000/svg" viewBox="0 0 860 128" width="860" height="128">
  <rect width="860" height="128" fill="#ffffff"/>
  <text x="20" y="28" font-size="18" font-weight="700" fill="#0f172a">ADD · 32-bit</text>
  <text x="20" y="116" font-size="11" fill="#475569">Generated from isa/v0.56/linxisa-v0.56.json</text>
  <text x="80" y="87" text-anchor="end" font-size="12" font-weight="700" fill="#475569">32 位</text><text x="103.5625" y="54" text-anchor="middle" font-size="10" fill="#475569">31</text><text x="196.0625" y="54" text-anchor="middle" font-size="10" fill="#475569">27</text><text x="288.5625" y="54" text-anchor="middle" font-size="10" fill="#475569">23</text><text x="381.0625" y="54" text-anchor="middle" font-size="10" fill="#475569">19</text><text x="473.5625" y="54" text-anchor="middle" font-size="10" fill="#475569">15</text><text x="566.0625" y="54" text-anchor="middle" font-size="10" fill="#475569">11</text><text x="658.5625" y="54" text-anchor="middle" font-size="10" fill="#475569">7</text><text x="751.0625" y="54" text-anchor="middle" font-size="10" fill="#475569">3</text><rect x="92" y="62" width="740" height="40" rx="8" fill="#f8fafc" stroke="#94a3b8" stroke-width="1.25"/><rect x="92" y="62" width="115.625" height="40" rx="6" fill="#fbcfe8" stroke="#94a3b8" stroke-width="1.25"/><text x="149.8125" y="86" text-anchor="middle" font-size="12" font-weight="600" fill="#0f172a">shamt</text><rect x="207.625" y="62" width="46.25" height="40" rx="6" fill="#bae6fd" stroke="#94a3b8" stroke-width="1.25"/><text x="230.75" y="86" text-anchor="middle" font-size="12" font-weight="600" fill="#0f172a">SrcRType</text><rect x="253.875" y="62" width="115.625" height="40" rx="6" fill="#bae6fd" stroke="#94a3b8" stroke-width="1.25"/><text x="311.6875" y="86" text-anchor="middle" font-size="12" font-weight="600" fill="#0f172a">SrcR</text><rect x="369.5" y="62" width="115.625" height="40" rx="6" fill="#bae6fd" stroke="#94a3b8" stroke-width="1.25"/><text x="427.3125" y="86" text-anchor="middle" font-size="12" font-weight="600" fill="#0f172a">SrcL</text><rect x="485.125" y="62" width="69.375" height="40" rx="6" fill="#e5e7eb" stroke="#94a3b8" stroke-width="1.25"/><text x="519.8125" y="86" text-anchor="middle" font-size="12" font-weight="600" fill="#0f172a">000</text><rect x="554.5" y="62" width="115.625" height="40" rx="6" fill="#bbf7d0" stroke="#94a3b8" stroke-width="1.25"/><text x="612.3125" y="86" text-anchor="middle" font-size="12" font-weight="600" fill="#0f172a">RegDst</text><rect x="670.125" y="62" width="69.375" height="40" rx="6" fill="#e5e7eb" stroke="#94a3b8" stroke-width="1.25"/><text x="704.8125" y="86" text-anchor="middle" font-size="12" font-weight="600" fill="#0f172a">000</text><rect x="739.5" y="62" width="69.375" height="40" rx="6" fill="#e9d5ff" stroke="#94a3b8" stroke-width="1.25"/><text x="774.1875" y="86" text-anchor="middle" font-size="12" font-weight="600" fill="#0f172a">010</text><rect x="808.875" y="62" width="23.125" height="40" rx="6" fill="#e9d5ff" stroke="#94a3b8" stroke-width="1.25"/><text x="820.4375" y="86" text-anchor="middle" font-size="10" font-weight="600" fill="#0f172a">1</text>
</svg>
