<?xml version="1.0" encoding="UTF-8"?>
<svg xmlns="http://www.w3.org/2000/svg" viewBox="0 0 1080 136" width="1080" height="136">
  <rect width="1080" height="136" fill="#ffffff"/>
  <text x="20" y="28" font-size="18" font-weight="700" fill="#0f172a">HL.LDI · 48-bit</text>
  <text x="20" y="124" font-size="11" fill="#475569">Generated from isa/v0.56/linxisa-v0.56.json</text>
  <text x="80" y="87" text-anchor="end" font-size="12" font-weight="700" fill="#475569">48 位</text><text x="102" y="54" text-anchor="middle" font-size="10" fill="#475569">47</text><text x="182" y="54" text-anchor="middle" font-size="10" fill="#475569">43</text><text x="262" y="54" text-anchor="middle" font-size="10" fill="#475569">39</text><text x="342" y="54" text-anchor="middle" font-size="10" fill="#475569">35</text><text x="422" y="54" text-anchor="middle" font-size="10" fill="#475569">31</text><text x="502" y="54" text-anchor="middle" font-size="10" fill="#475569">27</text><text x="582" y="54" text-anchor="middle" font-size="10" fill="#475569">23</text><text x="662" y="54" text-anchor="middle" font-size="10" fill="#475569">19</text><text x="742" y="54" text-anchor="middle" font-size="10" fill="#475569">15</text><text x="822" y="54" text-anchor="middle" font-size="10" fill="#475569">11</text><text x="902" y="54" text-anchor="middle" font-size="10" fill="#475569">7</text><text x="982" y="54" text-anchor="middle" font-size="10" fill="#475569">3</text><rect x="92" y="62" width="960" height="40" rx="8" fill="#f8fafc" stroke="#94a3b8" stroke-width="1.25"/><rect x="92" y="62" width="240" height="40" rx="6" fill="#fde68a" stroke="#94a3b8" stroke-width="1.25"/><text x="212" y="86" text-anchor="middle" font-size="12" font-weight="600" fill="#0f172a">simm22</text><rect x="332" y="62" width="100" height="40" rx="6" fill="#bae6fd" stroke="#94a3b8" stroke-width="1.25"/><text x="382" y="86" text-anchor="middle" font-size="12" font-weight="600" fill="#0f172a">SrcL</text><rect x="432" y="62" width="60" height="40" rx="6" fill="#e9d5ff" stroke="#94a3b8" stroke-width="1.25"/><text x="462" y="86" text-anchor="middle" font-size="12" font-weight="600" fill="#0f172a">011</text><rect x="492" y="62" width="100" height="40" rx="6" fill="#bbf7d0" stroke="#94a3b8" stroke-width="1.25"/><text x="542" y="86" text-anchor="middle" font-size="12" font-weight="600" fill="#0f172a">RegDst</text><rect x="592" y="62" width="60" height="40" rx="6" fill="#e9d5ff" stroke="#94a3b8" stroke-width="1.25"/><text x="622" y="86" text-anchor="middle" font-size="12" font-weight="600" fill="#0f172a">001</text><rect x="652" y="62" width="60" height="40" rx="6" fill="#e9d5ff" stroke="#94a3b8" stroke-width="1.25"/><text x="682" y="86" text-anchor="middle" font-size="12" font-weight="600" fill="#0f172a">100</text><rect x="712" y="62" width="20" height="40" rx="6" fill="#e9d5ff" stroke="#94a3b8" stroke-width="1.25"/><rect x="732" y="62" width="200" height="40" rx="6" fill="#fde68a" stroke="#94a3b8" stroke-width="1.25"/><text x="832" y="86" text-anchor="middle" font-size="12" font-weight="600" fill="#0f172a">simm22</text><rect x="932" y="62" width="40" height="40" rx="6" fill="#e5e7eb" stroke="#94a3b8" stroke-width="1.25"/><text x="952" y="86" text-anchor="middle" font-size="12" font-weight="600" fill="#0f172a">00</text><rect x="972" y="62" width="60" height="40" rx="6" fill="#e9d5ff" stroke="#94a3b8" stroke-width="1.25"/><text x="1002" y="86" text-anchor="middle" font-size="12" font-weight="600" fill="#0f172a">111</text><rect x="1032" y="62" width="20" height="40" rx="6" fill="#e5e7eb" stroke="#94a3b8" stroke-width="1.25"/>
</svg>
