<?xml version="1.0" encoding="UTF-8"?>
<svg xmlns="http://www.w3.org/2000/svg" viewBox="0 0 560 120" width="560" height="120">
  <rect width="560" height="120" fill="#ffffff"/>
  <text x="20" y="28" font-size="18" font-weight="700" fill="#0f172a">C.ADD · 16-bit</text>
  <text x="20" y="108" font-size="11" fill="#475569">Generated from isa/v0.56/linxisa-v0.56.json</text>
  <text x="80" y="87" text-anchor="end" font-size="12" font-weight="700" fill="#475569">16 位</text><text x="105.75" y="54" text-anchor="middle" font-size="10" fill="#475569">15</text><text x="160.75" y="54" text-anchor="middle" font-size="10" fill="#475569">13</text><text x="215.75" y="54" text-anchor="middle" font-size="10" fill="#475569">11</text><text x="270.75" y="54" text-anchor="middle" font-size="10" fill="#475569">9</text><text x="325.75" y="54" text-anchor="middle" font-size="10" fill="#475569">7</text><text x="380.75" y="54" text-anchor="middle" font-size="10" fill="#475569">5</text><text x="435.75" y="54" text-anchor="middle" font-size="10" fill="#475569">3</text><text x="490.75" y="54" text-anchor="middle" font-size="10" fill="#475569">1</text><rect x="92" y="62" width="440" height="40" rx="8" fill="#f8fafc" stroke="#94a3b8" stroke-width="1.25"/><rect x="92" y="62" width="137.5" height="40" rx="6" fill="#bae6fd" stroke="#94a3b8" stroke-width="1.25"/><text x="160.75" y="86" text-anchor="middle" font-size="12" font-weight="600" fill="#0f172a">SrcR</text><rect x="229.5" y="62" width="137.5" height="40" rx="6" fill="#bae6fd" stroke="#94a3b8" stroke-width="1.25"/><text x="298.25" y="86" text-anchor="middle" font-size="12" font-weight="600" fill="#0f172a">SrcL</text><rect x="367" y="62" width="55" height="40" rx="6" fill="#e5e7eb" stroke="#94a3b8" stroke-width="1.25"/><text x="394.5" y="86" text-anchor="middle" font-size="12" font-weight="600" fill="#0f172a">00</text><rect x="422" y="62" width="82.5" height="40" rx="6" fill="#e9d5ff" stroke="#94a3b8" stroke-width="1.25"/><text x="463.25" y="86" text-anchor="middle" font-size="12" font-weight="600" fill="#0f172a">100</text><rect x="504.5" y="62" width="27.5" height="40" rx="6" fill="#e5e7eb" stroke="#94a3b8" stroke-width="1.25"/><text x="518.25" y="86" text-anchor="middle" font-size="10" font-weight="600" fill="#0f172a">0</text>
</svg>
