<svg xmlns="http://www.w3.org/2000/svg" viewBox="0 0 800 120" width="800" height="120">
  <defs>
    <style>
      .field-label { font-family: "Courier New", monospace; font-size: 11px; fill: #333; }
      .bit-label { font-family: "Courier New", monospace; font-size: 9px; fill: #666; text-anchor: middle; }
      .mnemonic { font-family: "Helvetica Neue", Arial, sans-serif; font-size: 14px; font-weight: bold; fill: #333; }
      .field-rect { stroke: #fff; stroke-width: 1px; }
    </style>
  </defs>

  <text x="10" y="20" class="mnemonic">B.CATR</text>
  <text x="10" y="110" class="mnemonic" fill="#666">32-bit</text>

  <text x="71.25" y="22" class="bit-label">31</text>
  <text x="161.25" y="22" class="bit-label">27</text>
  <text x="251.25" y="22" class="bit-label">23</text>
  <text x="341.25" y="22" class="bit-label">19</text>
  <text x="431.25" y="22" class="bit-label">15</text>
  <text x="521.25" y="22" class="bit-label">11</text>
  <text x="611.25" y="22" class="bit-label">7</text>
  <text x="701.25" y="22" class="bit-label">3</text>
  <rect x="757.5" y="42.5" width="22.5" height="25.0" fill="#95A5A6" class="field-rect" rx="3"/>
  <rect x="757.5" y="42.5" width="22.5" height="25.0" fill="#95A5A6" class="field-rect" rx="3"/>
  <rect x="757.5" y="42.5" width="22.5" height="25.0" fill="#95A5A6" class="field-rect" rx="3"/>
  <rect x="757.5" y="42.5" width="22.5" height="25.0" fill="#95A5A6" class="field-rect" rx="3"/>
  <rect x="757.5" y="42.5" width="22.5" height="25.0" fill="#95A5A6" class="field-rect" rx="3"/>
  <rect x="757.5" y="42.5" width="22.5" height="25.0" fill="#95A5A6" class="field-rect" rx="3"/>
  <rect x="757.5" y="42.5" width="22.5" height="25.0" fill="#95A5A6" class="field-rect" rx="3"/>
  <rect x="757.5" y="42.5" width="22.5" height="25.0" fill="#95A5A6" class="field-rect" rx="3"/>
  <rect x="757.5" y="42.5" width="22.5" height="25.0" fill="#95A5A6" class="field-rect" rx="3"/>
  <rect x="757.5" y="42.5" width="22.5" height="25.0" fill="#95A5A6" class="field-rect" rx="3"/>
  <rect x="757.5" y="42.5" width="22.5" height="25.0" fill="#95A5A6" class="field-rect" rx="3"/>
  <rect x="757.5" y="42.5" width="22.5" height="25.0" fill="#95A5A6" class="field-rect" rx="3"/>
  <line x1="60" y1="30" x2="780.0" y2="30" stroke="#333" stroke-width="2"/>
  <line x1="60" y1="55.0" x2="780.0" y2="55.0" stroke="#333" stroke-width="2"/>
</svg>