<svg xmlns="http://www.w3.org/2000/svg" viewBox="0 0 900 132" width="900" height="132">
  <defs>
    <style>
      text { font-family: 'Courier New', monospace; }
    </style>
  </defs>
  <text x="6" y="15" font-family="Helvetica Neue,Arial,sans-serif" font-weight="bold" font-size="14" fill="#1a1a1a">V.LWU</text>
  <text x="12.94" y="8" text-anchor="middle" font-size="8" fill="#999999">63</text>
  <text x="54.56" y="8" text-anchor="middle" font-size="8" fill="#999999">60</text>
  <text x="110.06" y="8" text-anchor="middle" font-size="8" fill="#999999">56</text>
  <text x="165.56" y="8" text-anchor="middle" font-size="8" fill="#999999">52</text>
  <text x="221.06" y="8" text-anchor="middle" font-size="8" fill="#999999">48</text>
  <text x="276.56" y="8" text-anchor="middle" font-size="8" fill="#999999">44</text>
  <text x="332.06" y="8" text-anchor="middle" font-size="8" fill="#999999">40</text>
  <text x="387.56" y="8" text-anchor="middle" font-size="8" fill="#999999">36</text>
  <text x="443.06" y="8" text-anchor="middle" font-size="8" fill="#999999">32</text>
  <text x="498.56" y="8" text-anchor="middle" font-size="8" fill="#999999">28</text>
  <text x="554.06" y="8" text-anchor="middle" font-size="8" fill="#999999">24</text>
  <text x="609.56" y="8" text-anchor="middle" font-size="8" fill="#999999">20</text>
  <text x="665.06" y="8" text-anchor="middle" font-size="8" fill="#999999">16</text>
  <text x="720.56" y="8" text-anchor="middle" font-size="8" fill="#999999">12</text>
  <text x="776.06" y="8" text-anchor="middle" font-size="8" fill="#999999">8</text>
  <text x="831.56" y="8" text-anchor="middle" font-size="8" fill="#999999">4</text>
  <text x="887.06" y="8" text-anchor="middle" font-size="8" fill="#999999">0</text>
  <rect x="6" y="24" width="888.00" height="28" fill="none" stroke="#999999" stroke-width="0.8"/>
  <rect x="6.000" y="25" width="138.750" height="26" fill="#90A4AE" stroke="white" stroke-width="0.5"/>
  <rect x="144.750" y="25" width="55.500" height="26" fill="#90A4AE" stroke="white" stroke-width="0.5"/>
  <rect x="200.250" y="25" width="138.750" height="26" fill="#00796B" stroke="white" stroke-width="0.5"/>
  <text x="269.6" y="41.5" text-anchor="middle" dominant-baseline="middle" font-size="8.5" fill="white" pointer-events="none">SrcR[9:5</text>
  <rect x="339.000" y="25" width="138.750" height="26" fill="#1565C0" stroke="white" stroke-width="0.5"/>
  <text x="408.4" y="41.5" text-anchor="middle" dominant-baseline="middle" font-size="8.5" fill="white" pointer-events="none">SrcL[9:5</text>
  <rect x="477.750" y="25" width="27.750" height="26" fill="#607D8B" stroke="white" stroke-width="0.5"/>
  <text x="491.6" y="41.5" text-anchor="middle" dominant-baseline="middle" font-size="8.5" fill="white" pointer-events="none">L</text>
  <rect x="505.500" y="25" width="27.750" height="26" fill="#90A4AE" stroke="white" stroke-width="0.5"/>
  <rect x="533.250" y="25" width="27.750" height="26" fill="#607D8B" stroke="white" stroke-width="0.5"/>
  <text x="547.1" y="41.5" text-anchor="middle" dominant-baseline="middle" font-size="8.5" fill="white" pointer-events="none">C</text>
  <rect x="561.000" y="25" width="138.750" height="26" fill="#607D8B" stroke="white" stroke-width="0.5"/>
  <text x="630.4" y="41.5" text-anchor="middle" dominant-baseline="middle" font-size="8.5" fill="white" pointer-events="none">RegDst[9</text>
  <rect x="699.750" y="25" width="83.250" height="26" fill="#607D8B" stroke="white" stroke-width="0.5"/>
  <text x="741.4" y="41.5" text-anchor="middle" dominant-baseline="middle" font-size="8.5" fill="white" pointer-events="none">111</text>
  <rect x="783.000" y="25" width="83.250" height="26" fill="#607D8B" stroke="white" stroke-width="0.5"/>
  <text x="824.6" y="41.5" text-anchor="middle" dominant-baseline="middle" font-size="8.5" fill="white" pointer-events="none">111</text>
  <rect x="866.250" y="25" width="27.750" height="26" fill="#607D8B" stroke="white" stroke-width="0.5"/>
  <text x="880.1" y="41.5" text-anchor="middle" dominant-baseline="middle" font-size="8.5" fill="white" pointer-events="none">1</text>
  <text x="896" y="42.0" font-size="8" fill="#999999" font-family="Helvetica Neue,Arial">[31:0]</text>
  <rect x="6" y="58" width="888.00" height="28" fill="none" stroke="#999999" stroke-width="0.8"/>
  <rect x="6.000" y="59" width="138.750" height="26" fill="#AD1457" stroke="white" stroke-width="0.5"/>
  <text x="75.4" y="75.5" text-anchor="middle" dominant-baseline="middle" font-size="8.5" fill="white" pointer-events="none">sh</text>
  <rect x="144.750" y="59" width="55.500" height="26" fill="#90A4AE" stroke="white" stroke-width="0.5"/>
  <rect x="200.250" y="59" width="138.750" height="26" fill="#00796B" stroke="white" stroke-width="0.5"/>
  <text x="269.6" y="75.5" text-anchor="middle" dominant-baseline="middle" font-size="8.5" fill="white" pointer-events="none">SrcR[4:0</text>
  <rect x="339.000" y="59" width="138.750" height="26" fill="#1565C0" stroke="white" stroke-width="0.5"/>
  <text x="408.4" y="75.5" text-anchor="middle" dominant-baseline="middle" font-size="8.5" fill="white" pointer-events="none">SrcL[4:0</text>
  <rect x="477.750" y="59" width="27.750" height="26" fill="#607D8B" stroke="white" stroke-width="0.5"/>
  <text x="491.6" y="75.5" text-anchor="middle" dominant-baseline="middle" font-size="8.5" fill="white" pointer-events="none">1</text>
  <rect x="505.500" y="59" width="27.750" height="26" fill="#607D8B" stroke="white" stroke-width="0.5"/>
  <text x="519.4" y="75.5" text-anchor="middle" dominant-baseline="middle" font-size="8.5" fill="white" pointer-events="none">1</text>
  <rect x="533.250" y="59" width="27.750" height="26" fill="#90A4AE" stroke="white" stroke-width="0.5"/>
  <rect x="561.000" y="59" width="138.750" height="26" fill="#607D8B" stroke="white" stroke-width="0.5"/>
  <text x="630.4" y="75.5" text-anchor="middle" dominant-baseline="middle" font-size="8.5" fill="white" pointer-events="none">RegDst[4</text>
  <rect x="699.750" y="59" width="83.250" height="26" fill="#90A4AE" stroke="white" stroke-width="0.5"/>
  <rect x="783.000" y="59" width="83.250" height="26" fill="#607D8B" stroke="white" stroke-width="0.5"/>
  <text x="824.6" y="75.5" text-anchor="middle" dominant-baseline="middle" font-size="8.5" fill="white" pointer-events="none">100</text>
  <rect x="866.250" y="59" width="27.750" height="26" fill="#607D8B" stroke="white" stroke-width="0.5"/>
  <text x="880.1" y="75.5" text-anchor="middle" dominant-baseline="middle" font-size="8.5" fill="white" pointer-events="none">1</text>
  <text x="896" y="76.0" font-size="8" fill="#999999" font-family="Helvetica Neue,Arial">[31:0]</text>
  <text x="6" y="128" font-size="9" fill="#aaaaaa" font-family="Helvetica Neue,Arial,sans-serif">64-bit encoding</text>
</svg>