<svg xmlns="http://www.w3.org/2000/svg" viewBox="0 0 800 64" width="800" height="64">
  <defs>
    <style>
      text { font-family: 'Courier New', monospace; font-size: 9px; }
    </style>
  </defs>
  <text x="6" y="16" font-family="Helvetica Neue,Arial" font-weight="bold" font-size="13" fill="#1a1a1a">V.ICVTF</text>
  <text x="55.2" y="8" text-anchor="middle" fill="#aaa" font-size="8">31</text>
  <text x="153.8" y="8" text-anchor="middle" fill="#aaa" font-size="8">27</text>
  <text x="252.2" y="8" text-anchor="middle" fill="#aaa" font-size="8">23</text>
  <text x="350.8" y="8" text-anchor="middle" fill="#aaa" font-size="8">19</text>
  <text x="449.2" y="8" text-anchor="middle" fill="#aaa" font-size="8">15</text>
  <text x="547.8" y="8" text-anchor="middle" fill="#aaa" font-size="8">11</text>
  <text x="646.2" y="8" text-anchor="middle" fill="#aaa" font-size="8">7</text>
  <text x="744.8" y="8" text-anchor="middle" fill="#aaa" font-size="8">3</text>
  <rect x="6" y="24" width="788" height="16" fill="none" stroke="#333" stroke-width="1"/>
  <rect x="6.00" y="25" width="123.12" height="14" fill="#78909C" stroke="#fff" stroke-width="0.5"/>
  <rect x="129.12" y="25" width="49.25" height="14" fill="#78909C" stroke="#fff" stroke-width="0.5"/>
  <rect x="178.38" y="25" width="123.12" height="14" fill="#78909C" stroke="#fff" stroke-width="0.5"/>
  <rect x="301.50" y="25" width="123.12" height="14" fill="#1565C0" stroke="#fff" stroke-width="0.5"/>
  <text x="363.1" y="35.0" text-anchor="middle" dominant-baseline="middle" fill="#fff" font-size="8">SrcL[9:</text>
  <rect x="424.62" y="25" width="24.62" height="14" fill="#78909C" stroke="#fff" stroke-width="0.5"/>
  <rect x="449.25" y="25" width="24.62" height="14" fill="#78909C" stroke="#fff" stroke-width="0.5"/>
  <rect x="473.88" y="25" width="24.62" height="14" fill="#78909C" stroke="#fff" stroke-width="0.5"/>
  <rect x="498.50" y="25" width="123.12" height="14" fill="#90A4AE" stroke="#fff" stroke-width="0.5"/>
  <text x="560.1" y="35.0" text-anchor="middle" dominant-baseline="middle" fill="#fff" font-size="8">RegDst[</text>
  <rect x="621.62" y="25" width="73.88" height="14" fill="#90A4AE" stroke="#fff" stroke-width="0.5"/>
  <rect x="695.50" y="25" width="73.88" height="14" fill="#90A4AE" stroke="#fff" stroke-width="0.5"/>
  <rect x="769.38" y="25" width="24.62" height="14" fill="#90A4AE" stroke="#fff" stroke-width="0.5"/>
  <text x="6" y="58" font-size="9" fill="#aaa" font-family="Helvetica Neue,Arial">32-bit encoding</text>
</svg>