<?xml version="1.0" encoding="UTF-8"?>
<svg xmlns="http://www.w3.org/2000/svg" viewBox="0 0 900 200" width="900" height="200">
  <defs>
    <marker id="arr" markerWidth="10" markerHeight="10" refX="9" refY="3" orient="auto">
      <path d="M0,0 L0,6 L9,3 z" fill="#334155"/>
    </marker>
    <marker id="arr2" markerWidth="8" markerHeight="8" refX="7" refY="2.5" orient="auto">
      <path d="M0,0 L0,5 L7,2.5 z" fill="#a855f7"/>
    </marker>
  </defs>
  <rect width="900" height="200" fill="#f8fafc" rx="4"/>
  <text x="450" y="18" font-family="Helvetica Neue,Arial,sans-serif" font-size="13" font-weight="bold" fill="#1e293b" text-anchor="middle">Group/Lane Scheduling Model</text>
  <!-- Iteration IDs row -->
  <text x="50" y="40" font-family="Helvetica Neue,Arial,sans-serif" font-size="10" font-weight="bold" fill="#334155">Iteration IDs:</text>
  <rect x="50" y="46" width="40" height="18" fill="#e2e8f0" stroke="#94a3b8" rx="3"/>
  <text x="70" y="59" font-family="monospace" font-size="10" fill="#334155" text-anchor="middle">i0</text>
  <rect x="95" y="46" width="40" height="18" fill="#e2e8f0" stroke="#94a3b8" rx="3"/>
  <text x="115" y="59" font-family="monospace" font-size="10" fill="#334155" text-anchor="middle">i1</text>
  <rect x="140" y="46" width="40" height="18" fill="#e2e8f0" stroke="#94a3b8" rx="3"/>
  <text x="160" y="59" font-family="monospace" font-size="10" fill="#334155" text-anchor="middle">i2</text>
  <rect x="185" y="46" width="40" height="18" fill="#e2e8f0" stroke="#94a3b8" rx="3"/>
  <text x="205" y="59" font-family="monospace" font-size="10" fill="#334155" text-anchor="middle">i3</text>
  <rect x="230" y="46" width="40" height="18" fill="#e2e8f0" stroke="#94a3b8" rx="3"/>
  <text x="250" y="59" font-family="monospace" font-size="10" fill="#334155" text-anchor="middle">i4</text>
  <rect x="275" y="46" width="40" height="18" fill="#e2e8f0" stroke="#94a3b8" rx="3"/>
  <text x="295" y="59" font-family="monospace" font-size="10" fill="#334155" text-anchor="middle">i5</text>
  <rect x="320" y="46" width="40" height="18" fill="#e2e8f0" stroke="#94a3b8" rx="3"/>
  <text x="340" y="59" font-family="monospace" font-size="10" fill="#334155" text-anchor="middle">i6</text>
  <rect x="365" y="46" width="40" height="18" fill="#e2e8f0" stroke="#94a3b8" rx="3"/>
  <text x="385" y="59" font-family="monospace" font-size="10" fill="#334155" text-anchor="middle">i7</text>
  <rect x="410" y="46" width="40" height="18" fill="#e2e8f0" stroke="#94a3b8" rx="3"/>
  <text x="430" y="59" font-family="monospace" font-size="10" fill="#334155" text-anchor="middle">i8</text>
  <rect x="455" y="46" width="40" height="18" fill="#e2e8f0" stroke="#94a3b8" rx="3"/>
  <text x="475" y="59" font-family="monospace" font-size="10" fill="#334155" text-anchor="middle">i9</text>
  <rect x="500" y="46" width="40" height="18" fill="#e2e8f0" stroke="#94a3b8" rx="3"/>
  <text x="520" y="59" font-family="monospace" font-size="10" fill="#334155" text-anchor="middle">i10</text>
  <!-- Mapping arrows -->
  <line x1="70" y1="64" x2="70" y2="82" stroke="#a855f7" stroke-width="1.5" marker-end="url(#arr2)"/>
  <line x1="115" y1="64" x2="115" y2="82" stroke="#a855f7" stroke-width="1.5" marker-end="url(#arr2)"/>
  <line x1="160" y1="64" x2="160" y2="82" stroke="#a855f7" stroke-width="1.5" marker-end="url(#arr2)"/>
  <line x1="205" y1="64" x2="205" y2="82" stroke="#a855f7" stroke-width="1.5" marker-end="url(#arr2)"/>
  <line x1="250" y1="64" x2="330" y2="82" stroke="#a855f7" stroke-width="1.5" marker-end="url(#arr2)"/>
  <line x1="295" y1="64" x2="375" y2="82" stroke="#a855f7" stroke-width="1.5" marker-end="url(#arr2)"/>
  <line x1="340" y1="64" x2="420" y2="82" stroke="#a855f7" stroke-width="1.5" marker-end="url(#arr2)"/>
  <line x1="385" y1="64" x2="465" y2="82" stroke="#a855f7" stroke-width="1.5" marker-end="url(#arr2)"/>
  <line x1="430" y1="64" x2="510" y2="82" stroke="#a855f7" stroke-width="1.5" marker-end="url(#arr2)"/>
  <line x1="475" y1="64" x2="555" y2="82" stroke="#a855f7" stroke-width="1.5" marker-end="url(#arr2)"/>
  <line x1="520" y1="64" x2="600" y2="82" stroke="#a855f7" stroke-width="1.5" marker-end="url(#arr2)"/>
  <!-- Group 0 -->
  <rect x="50" y="86" width="200" height="90" fill="#f3e8ff" stroke="#a855f7" stroke-width="2" rx="6"/>
  <text x="150" y="102" font-family="Helvetica Neue,Arial,sans-serif" font-size="11" font-weight="bold" fill="#7e22ce" text-anchor="middle">Group 0</text>
  <rect x="60" y="108" width="38" height="60" fill="#e9d5ff" stroke="#a855f7" rx="4"/>
  <text x="79" y="122" font-family="monospace" font-size="10" font-weight="bold" fill="#7e22ce" text-anchor="middle">L0</text>
  <text x="79" y="140" font-family="monospace" font-size="9" fill="#6d28d9" text-anchor="middle">i0</text>
  <rect x="103" y="108" width="38" height="60" fill="#e9d5ff" stroke="#a855f7" rx="4"/>
  <text x="122" y="122" font-family="monospace" font-size="10" font-weight="bold" fill="#7e22ce" text-anchor="middle">L1</text>
  <text x="122" y="140" font-family="monospace" font-size="9" fill="#6d28d9" text-anchor="middle">i1</text>
  <rect x="146" y="108" width="38" height="60" fill="#e9d5ff" stroke="#a855f7" rx="4"/>
  <text x="165" y="122" font-family="monospace" font-size="10" font-weight="bold" fill="#7e22ce" text-anchor="middle">L2</text>
  <text x="165" y="140" font-family="monospace" font-size="9" fill="#6d28d9" text-anchor="middle">i2</text>
  <rect x="189" y="108" width="38" height="60" fill="#e9d5ff" stroke="#a855f7" rx="4"/>
  <text x="208" y="122" font-family="monospace" font-size="10" font-weight="bold" fill="#7e22ce" text-anchor="middle">L3</text>
  <text x="208" y="140" font-family="monospace" font-size="9" fill="#6d28d9" text-anchor="middle">i3</text>
  <!-- Group 1 -->
  <rect x="270" y="86" width="200" height="90" fill="#f3e8ff" stroke="#a855f7" stroke-width="2" rx="6"/>
  <text x="370" y="102" font-family="Helvetica Neue,Arial,sans-serif" font-size="11" font-weight="bold" fill="#7e22ce" text-anchor="middle">Group 1</text>
  <rect x="280" y="108" width="38" height="60" fill="#e9d5ff" stroke="#a855f7" rx="4"/>
  <text x="299" y="122" font-family="monospace" font-size="10" font-weight="bold" fill="#7e22ce" text-anchor="middle">L0</text>
  <text x="299" y="140" font-family="monospace" font-size="9" fill="#6d28d9" text-anchor="middle">i4</text>
  <rect x="323" y="108" width="38" height="60" fill="#e9d5ff" stroke="#a855f7" rx="4"/>
  <text x="342" y="122" font-family="monospace" font-size="10" font-weight="bold" fill="#7e22ce" text-anchor="middle">L1</text>
  <text x="342" y="140" font-family="monospace" font-size="9" fill="#6d28d9" text-anchor="middle">i5</text>
  <rect x="366" y="108" width="38" height="60" fill="#e9d5ff" stroke="#a855f7" rx="4"/>
  <text x="385" y="122" font-family="monospace" font-size="10" font-weight="bold" fill="#7e22ce" text-anchor="middle">L2</text>
  <text x="385" y="140" font-family="monospace" font-size="9" fill="#6d28d9" text-anchor="middle">i6</text>
  <rect x="409" y="108" width="38" height="60" fill="#e9d5ff" stroke="#a855f7" rx="4"/>
  <text x="428" y="122" font-family="monospace" font-size="10" font-weight="bold" fill="#7e22ce" text-anchor="middle">L3</text>
  <text x="428" y="140" font-family="monospace" font-size="9" fill="#6d28d9" text-anchor="middle">i7</text>
  <!-- Group 2 -->
  <rect x="490" y="86" width="200" height="90" fill="#f3e8ff" stroke="#a855f7" stroke-width="2" rx="6"/>
  <text x="590" y="102" font-family="Helvetica Neue,Arial,sans-serif" font-size="11" font-weight="bold" fill="#7e22ce" text-anchor="middle">Group 2</text>
  <rect x="500" y="108" width="38" height="60" fill="#e9d5ff" stroke="#a855f7" rx="4"/>
  <text x="519" y="122" font-family="monospace" font-size="10" font-weight="bold" fill="#7e22ce" text-anchor="middle">L0</text>
  <text x="519" y="140" font-family="monospace" font-size="9" fill="#6d28d9" text-anchor="middle">i8</text>
  <rect x="543" y="108" width="38" height="60" fill="#e9d5ff" stroke="#a855f7" rx="4"/>
  <text x="562" y="122" font-family="monospace" font-size="10" font-weight="bold" fill="#7e22ce" text-anchor="middle">L1</text>
  <text x="562" y="140" font-family="monospace" font-size="9" fill="#6d28d9" text-anchor="middle">i9</text>
  <rect x="586" y="108" width="38" height="60" fill="#e9d5ff" stroke="#a855f7" rx="4"/>
  <text x="605" y="122" font-family="monospace" font-size="10" font-weight="bold" fill="#7e22ce" text-anchor="middle">L2</text>
  <text x="605" y="140" font-family="monospace" font-size="9" fill="#6d28d9" text-anchor="middle">i10</text>
  <rect x="629" y="108" width="38" height="60" fill="#ddd6fe" stroke="#c4b5fd" rx="4"/>
  <text x="648" y="122" font-family="monospace" font-size="10" font-weight="bold" fill="#a78bfa" text-anchor="middle">L3</text>
  <text x="648" y="140" font-family="monospace" font-size="9" fill="#a78bfa" text-anchor="middle">--</text>
  <!-- Legend -->
  <rect x="710" y="40" width="180" height="130" fill="#f1f5f9" stroke="#cbd5e1" rx="4"/>
  <text x="800" y="56" font-family="Helvetica Neue,Arial,sans-serif" font-size="10" font-weight="bold" fill="#334155" text-anchor="middle">Legend</text>
  <rect x="720" y="62" width="16" height="12" fill="#e9d5ff" stroke="#a855f7" rx="2"/>
  <text x="742" y="72" font-family="Helvetica Neue,Arial,sans-serif" font-size="9" fill="#475569">Group</text>
  <rect x="720" y="80" width="16" height="12" fill="#e9d5ff" stroke="#a855f7" rx="2"/>
  <text x="742" y="90" font-family="monospace" font-size="9" fill="#7e22ce">L0-L3</text>
  <text x="742" y="100" font-family="Helvetica Neue,Arial,sans-serif" font-size="8" fill="#64748b">Lane index within Group</text>
  <rect x="720" y="106" width="16" height="12" fill="#ddd6fe" stroke="#c4b5fd" rx="2"/>
  <text x="742" y="116" font-family="Helvetica Neue,Arial,sans-serif" font-size="9" fill="#475569">Inactive Lane</text>
  <text x="720" y="136" font-family="monospace" font-size="8" fill="#7e22ce">LaneNum = i % 4</text>
  <text x="720" y="148" font-family="monospace" font-size="8" fill="#7e22ce">GroupId = i / 4</text>
  <text x="720" y="160" font-family="monospace" font-size="7" fill="#64748b">(integer division)</text>
</svg>