<?xml version="1.0" encoding="UTF-8"?>
<svg xmlns="http://www.w3.org/2000/svg" width="600" height="400" viewBox="0 0 600 400">
  <style>
    text { font-family: "Helvetica Neue", Arial, sans-serif; font-size: 14px; }
    .title { font-size: 18px; font-weight: bold; fill: #333; }
    .label { font-size: 12px; fill: #555; }
    .matrix-label { font-size: 11px; fill: white; }
  </style>

  <text x="10" y="25" class="title">Matrix Multiplication Storage Layout</text>
  <text x="10" y="45" class="label">How matrices A, B are stored in tile registers and CUBE result</text>

  <!-- Matrix A (D layout) -->
  <g transform="translate(20, 60)">
    <text x="0" y="0" class="label" font-weight="bold" fill="#1A8CFF">Matrix A (D Layout)</text>

    <rect x="0" y="10" width="120" height="100" fill="#B3D9FF" rx="3" stroke="#333" stroke-width="1"/>

    <!-- 4x4 matrix visualization -->
    <rect x="10" y="20" width="20" height="20" fill="#1A8CFF" rx="1"/>
    <rect x="35" y="20" width="20" height="20" fill="#1A8CFF" rx="1"/>
    <rect x="60" y="20" width="20" height="20" fill="#1A8CFF" rx="1"/>
    <rect x="85" y="20" width="20" height="20" fill="#1A8CFF" rx="1"/>

    <rect x="10" y="45" width="20" height="20" fill="#4DA6FF" rx="1"/>
    <rect x="35" y="45" width="20" height="20" fill="#4DA6FF" rx="1"/>
    <rect x="60" y="45" width="20" height="20" fill="#4DA6FF" rx="1"/>
    <rect x="85" y="45" width="20" height="20" fill="#4DA6FF" rx="1"/>

    <rect x="10" y="70" width="20" height="20" fill="#80C1FF" rx="1"/>
    <rect x="35" y="70" width="20" height="20" fill="#80C1FF" rx="1"/>
    <rect x="60" y="70" width="20" height="20" fill="#80C1FF" rx="1"/>
    <rect x="85" y="70" width="20" height="20" fill="#80C1FF" rx="1"/>

    <text x="60" y="125" text-anchor="middle" class="label">Row-major (D)</text>

    <!-- Arrow down to tile register -->
    <text x="60" y="150" text-anchor="middle" class="label">↓</text>
    <rect x="10" y="155" width="100" height="40" fill="#B3D9FF" rx="3" stroke="#333" stroke-width="1"/>
    <text x="60" y="180" text-anchor="middle" class="matrix-label">Tile D[0..15]</text>
  </g>

  <!-- Matrix B (Z layout) -->
  <g transform="translate(170, 60)">
    <text x="0" y="0" class="label" font-weight="bold" fill="#663399">Matrix B (Z Layout)</text>

    <rect x="0" y="10" width="100" height="120" fill="#E6D9F2" rx="3" stroke="#333" stroke-width="1"/>

    <!-- 4x4 matrix visualization (column-major) -->
    <rect x="10" y="20" width="20" height="20" fill="#663399" rx="1"/>
    <rect x="35" y="20" width="20" height="20" fill="#80C1FF" rx="1"/>
    <rect x="60" y="20" width="20" height="20" fill="#B3D9FF" rx="1"/>

    <rect x="10" y="45" width="20" height="20" fill="#663399" rx="1"/>
    <rect x="35" y="45" width="20" height="20" fill="#80C1FF" rx="1"/>
    <rect x="60" y="45" width="20" height="20" fill="#B3D9FF" rx="1"/>

    <rect x="10" y="70" width="20" height="20" fill="#663399" rx="1"/>
    <rect x="35" y="70" width="20" height="20" fill="#80C1FF" rx="1"/>
    <rect x="60" y="70" width="20" height="20" fill="#B3D9FF" rx="1"/>

    <text x="50" y="125" text-anchor="middle" class="label">Col-major (Z)</text>

    <!-- Arrow down to tile register -->
    <text x="50" y="150" text-anchor="middle" class="label">↓</text>
    <rect x="0" y="155" width="100" height="40" fill="#E6D9F2" rx="3" stroke="#333" stroke-width="1"/>
    <text x="50" y="180" text-anchor="middle" class="matrix-label">Tile Z[0..15]</text>
  </g>

  <!-- CUBE multiply -->
  <g transform="translate(320, 80)">
    <rect x="0" y="0" width="120" height="80" fill="#9370DB" rx="5" stroke="#333" stroke-width="2"/>
    <text x="60" y="35" text-anchor="middle" class="label" fill="white" font-weight="bold">CUBE</text>
    <text x="60" y="55" text-anchor="middle" class="label" fill="white">Multiply</text>
    <text x="60" y="70" text-anchor="middle" class="label" fill="white">D × Z</text>

    <!-- Arrows to CUBE -->
    <path d="M 130,50 L 140,50" stroke="#333" stroke-width="2"/>
    <path d="M 130,70 L 140,60" stroke="#333" stroke-width="2"/>
  </g>

  <!-- Result to ACC -->
  <g transform="translate(320, 180)">
    <text x="60" y="0" text-anchor="middle" class="label">↓</text>
    <text x="60" y="15" text-anchor="middle" class="label">Partial sums</text>

    <rect x="0" y="25" width="120" height="80" fill="#A5D6A7" rx="5" stroke="#2E7D32" stroke-width="2"/>
    <text x="60" y="60" text-anchor="middle" class="label" fill="#2E7D32" font-weight="bold">ACC</text>
    <text x="60" y="80" text-anchor="middle" class="label">4 × Tile size</text>
  </g>

  <!-- Bottom: Matrix C representation -->
  <g transform="translate(20, 290)">
    <text x="0" y="0" class="label" font-weight="bold">Matrix C (Result)</text>

    <rect x="0" y="10" width="120" height="100" fill="#C8E6C9" rx="3" stroke="#333" stroke-width="1"/>

    <!-- 4x4 result matrix placeholder -->
    <text x="60" y="60" text-anchor="middle" class="label">D Layout</text>
    <text x="60" y="80" text-anchor="middle" class="label">Accumulated</text>
    <text x="60" y="95" text-anchor="middle" class="label">Result</text>

    <rect x="10" y="115" width="100" height="40" fill="#A5D6A7" rx="3" stroke="#333" stroke-width="1"/>
    <text x="60" y="140" text-anchor="middle" class="matrix-label">ACC[0..63]</text>
  </g>

  <!-- Formula at bottom -->
  <text x="300" y="380" text-anchor="middle" class="label" font-family="Courier New, monospace">C[D,D] += A[D,Z] * B[Z,D]</text>
</svg>