<?xml version="1.0" encoding="UTF-8"?>
<svg xmlns="http://www.w3.org/2000/svg" width="600" height="400" viewBox="0 0 600 400">
  <style>
    text { font-family: "Helvetica Neue", Arial, sans-serif; font-size: 14px; }
    .title { font-size: 18px; font-weight: bold; fill: #333; }
    .label { font-size: 12px; fill: #555; }
    .matrix-label { font-size: 11px; fill: white; }
    .formula { font-family: "Courier New", monospace; font-size: 14px; fill: #333; }
  </style>

  <text x="10" y="25" class="title">Matrix Multiply-Accumulate (MATMADD)</text>
  <text x="10" y="45" class="label">C = A × B + C where A is D layout, B is Z layout, C is D layout</text>

  <!-- Matrix A -->
  <g transform="translate(20, 60)">
    <text x="0" y="0" class="label" font-weight="bold" fill="#1A8CFF">A (D Layout)</text>
    <rect x="0" y="10" width="100" height="80" fill="#B3D9FF" rx="3" stroke="#333" stroke-width="1"/>
    <text x="50" y="55" text-anchor="middle" class="label">4×4</text>
    <text x="50" y="110" text-anchor="middle" class="label">Row-major</text>
  </g>

  <!-- × symbol -->
  <g transform="translate(140, 90)">
    <text x="0" y="20" font-size="36" fill="#333">×</text>
  </g>

  <!-- Matrix B -->
  <g transform="translate(180, 60)">
    <text x="0" y="0" class="label" font-weight="bold" fill="#663399">B (Z Layout)</text>
    <rect x="0" y="10" width="80" height="100" fill="#E6D9F2" rx="3" stroke="#333" stroke-width="1"/>
    <text x="40" y="65" text-anchor="middle" class="label">4×4</text>
    <text x="40" y="130" text-anchor="middle" class="label">Col-major</text>
  </g>

  <!-- + symbol -->
  <g transform="translate(280, 100)">
    <text x="0" y="20" font-size="36" fill="#333">+</text>
  </g>

  <!-- Matrix C -->
  <g transform="translate(320, 60)">
    <text x="0" y="0" class="label" font-weight="bold" fill="#2E7D32">C (D Layout)</text>
    <rect x="0" y="10" width="100" height="80" fill="#C8E6C9" rx="3" stroke="#333" stroke-width="1"/>
    <text x="50" y="55" text-anchor="middle" class="label">4×4</text>
    <text x="50" y="110" text-anchor="middle" class="label">Accumulator</text>
  </g>

  <!-- = symbol -->
  <g transform="translate(440, 100)">
    <text x="0" y="20" font-size="36" fill="#333">=</text>
  </g>

  <!-- Result -->
  <g transform="translate(480, 60)">
    <text x="0" y="0" class="label" font-weight="bold" fill="#2E7D32">Result</text>
    <rect x="0" y="10" width="100" height="80" fill="#A5D6A7" rx="3" stroke="#2E7D32" stroke-width="2"/>
    <text x="50" y="55" text-anchor="middle" class="label">C'</text>
    <text x="50" y="110" text-anchor="middle" class="label">Updated</text>
  </g>

  <!-- Tile register view -->
  <g transform="translate(20, 220)">
    <rect x="0" y="0" width="560" height="150" fill="#F5F5F5" rx="5" stroke="#999" stroke-width="1"/>
    <text x="10" y="20" class="label" font-weight="bold">Tile Register Organization:</text>

    <!-- A tile -->
    <rect x="20" y="35" width="100" height="100" fill="#B3D9FF" rx="3" stroke="#333" stroke-width="1"/>
    <text x="70" y="70" text-anchor="middle" class="matrix-label">D[15:0]</text>
    <text x="70" y="90" text-anchor="middle" class="label">Matrix A</text>

    <!-- B tile -->
    <rect x="140" y="35" width="100" height="100" fill="#E6D9F2" rx="3" stroke="#333" stroke-width="1"/>
    <text x="190" y="70" text-anchor="middle" class="matrix-label">Z[15:0]</text>
    <text x="190" y="90" text-anchor="middle" class="label">Matrix B</text>

    <!-- C tile -->
    <rect x="260" y="35" width="100" height="100" fill="#C8E6C9" rx="3" stroke="#333" stroke-width="1"/>
    <text x="310" y="70" text-anchor="middle" class="matrix-label">N[15:0]</text>
    <text x="310" y="90" text-anchor="middle" class="label">Matrix C</text>

    <!-- CUBE unit -->
    <rect x="380" y="35" width="80" height="100" fill="#9370DB" rx="3" stroke="#333" stroke-width="1"/>
    <text x="420" y="70" text-anchor="middle" class="label" fill="white" font-weight="bold">CUBE</text>
    <text x="420" y="90" text-anchor="middle" class="label" fill="white">FMA</text>

    <!-- Arrow -->
    <path d="M 470,85 L 480,85" stroke="#333" stroke-width="2"/>
    <polygon points="485,85 475,80 475,90" fill="#333"/>

    <!-- Result -->
    <rect x="490" y="35" width="70" height="100" fill="#A5D6A7" rx="3" stroke="#2E7D32" stroke-width="2"/>
    <text x="525" y="70" text-anchor="middle" class="matrix-label">ACC</text>
    <text x="525" y="90" text-anchor="middle" class="label">Result</text>
  </g>

  <!-- Formula -->
  <text x="300" y="390" text-anchor="middle" class="formula">C[D,D] = A[D,Z] × B[Z,D] + C[D,D]</text>
</svg>