<svg xmlns="http://www.w3.org/2000/svg" width="640" height="560" viewBox="0 0 640 560">
  <g transform="translate(0.5,0.5)" text-anchor="middle" font-size="14" font-family="sans-serif" font-weight="normal">
    <g transform="translate(4,501)">
      <g stroke="black" stroke-width="1" stroke-linecap="round">
        <line x2="631"/>
        <line y2="55"/>
        <line x2="631" y1="55" y2="55"/>
        <line x1="631" x2="631" y2="55"/>
        <line x1="611" x2="611" y2="6"/>
        <line x1="611" x2="611" y1="55" y2="49"/>
        <line x1="592" x2="592" y2="6"/>
        <line x1="592" x2="592" y1="55" y2="49"/>
        <line x1="572" x2="572" y2="6"/>
        <line x1="572" x2="572" y1="55" y2="49"/>
        <line x1="552" x2="552" y2="55"/>
        <line x1="532" x2="532" y2="6"/>
        <line x1="532" x2="532" y1="55" y2="49"/>
        <line x1="513" x2="513" y2="6"/>
        <line x1="513" x2="513" y1="55" y2="49"/>
        <line x1="493" x2="493" y2="55"/>
        <line x1="473" x2="473" y2="6"/>
        <line x1="473" x2="473" y1="55" y2="49"/>
        <line x1="454" x2="454" y2="6"/>
        <line x1="454" x2="454" y1="55" y2="49"/>
        <line x1="434" x2="434" y2="6"/>
        <line x1="434" x2="434" y1="55" y2="49"/>
        <line x1="414" x2="414" y2="6"/>
        <line x1="414" x2="414" y1="55" y2="49"/>
        <line x1="394" x2="394" y2="55"/>
        <line x1="375" x2="375" y2="6"/>
        <line x1="375" x2="375" y1="55" y2="49"/>
        <line x1="355" x2="355" y2="6"/>
        <line x1="355" x2="355" y1="55" y2="49"/>
        <line x1="335" x2="335" y2="55"/>
        <line x1="316" x2="316" y2="6"/>
        <line x1="316" x2="316" y1="55" y2="49"/>
        <line x1="296" x2="296" y2="6"/>
        <line x1="296" x2="296" y1="55" y2="49"/>
        <line x1="276" x2="276" y2="6"/>
        <line x1="276" x2="276" y1="55" y2="49"/>
        <line x1="256" x2="256" y2="6"/>
        <line x1="256" x2="256" y1="55" y2="49"/>
        <line x1="237" x2="237" y2="55"/>
        <line x1="217" x2="217" y2="6"/>
        <line x1="217" x2="217" y1="55" y2="49"/>
        <line x1="197" x2="197" y2="6"/>
        <line x1="197" x2="197" y1="55" y2="49"/>
        <line x1="177" x2="177" y2="6"/>
        <line x1="177" x2="177" y1="55" y2="49"/>
        <line x1="158" x2="158" y2="6"/>
        <line x1="158" x2="158" y1="55" y2="49"/>
        <line x1="138" x2="138" y2="55"/>
        <line x1="118" x2="118" y2="6"/>
        <line x1="118" x2="118" y1="55" y2="49"/>
        <line x1="99" x2="99" y2="55"/>
        <line x1="79" x2="79" y2="6"/>
        <line x1="79" x2="79" y1="55" y2="49"/>
        <line x1="59" x2="59" y2="6"/>
        <line x1="59" x2="59" y1="55" y2="49"/>
        <line x1="39" x2="39" y2="6"/>
        <line x1="39" x2="39" y1="55" y2="49"/>
        <line x1="20" x2="20" y2="6"/>
        <line x1="20" x2="20" y1="55" y2="49"/>
      </g>
      <g>
        <g>
          <rect x="552" width="79" height="55" field="1" style="fill-opacity:0.1"/>
          <rect x="493" width="59" height="55" field="3" style="fill-opacity:0.1;fill:#ffbf00"/>
          <rect x="335" width="59" height="55" field="0" style="fill-opacity:0.1;fill:#00ffd5"/>
          <rect x="237" width="99" height="55" field="RegSrc0 = DstAddr" style="fill-opacity:0.1"/>
          <rect x="138" width="99" height="55" field="RegSrc1 = SrcAddr" style="fill-opacity:0.1"/>
          <rect width="99" height="55" field="RegSrc2=Size" style="fill-opacity:0.1"/>
        </g>
        <g transform="translate(10,-11)">
          <g transform="translate(611)">
            <text y="6">0</text>
          </g>
          <g transform="translate(552)">
            <text y="6">3</text>
          </g>
          <g transform="translate(532)">
            <text y="6">4</text>
          </g>
          <g transform="translate(493)">
            <text y="6">6</text>
          </g>
          <g transform="translate(473)">
            <text y="6">7</text>
          </g>
          <g transform="translate(394)">
            <text y="6">11</text>
          </g>
          <g transform="translate(375)">
            <text y="6">12</text>
          </g>
          <g transform="translate(335)">
            <text y="6">14</text>
          </g>
          <g transform="translate(316)">
            <text y="6">15</text>
          </g>
          <g transform="translate(237)">
            <text y="6">19</text>
          </g>
          <g transform="translate(217)">
            <text y="6">20</text>
          </g>
          <g transform="translate(138)">
            <text y="6">24</text>
          </g>
          <g transform="translate(118)">
            <text y="6">25</text>
          </g>
          <g transform="translate(99)">
            <text y="6">26</text>
          </g>
          <g transform="translate(79)">
            <text y="6">27</text>
          </g>
          <g transform="translate(0)">
            <text y="6">31</text>
          </g>
        </g>
        <g transform="translate(10,27)">
          <g>
            <g transform="translate(611)">
              <text y="6">1</text>
            </g>
            <g transform="translate(592)">
              <text y="6">0</text>
            </g>
            <g transform="translate(572)">
              <text y="6">0</text>
            </g>
            <g transform="translate(552)">
              <text y="6">0</text>
            </g>
          </g>
          <g>
            <g transform="translate(532)">
              <text y="6">1</text>
            </g>
            <g transform="translate(513)">
              <text y="6">1</text>
            </g>
            <g transform="translate(493)">
              <text y="6">0</text>
            </g>
          </g>
          <g>
            <g transform="translate(473)">
              <text y="6">0</text>
            </g>
            <g transform="translate(454)">
              <text y="6">0</text>
            </g>
            <g transform="translate(434)">
              <text y="6">0</text>
            </g>
            <g transform="translate(414)">
              <text y="6">0</text>
            </g>
            <g transform="translate(394)">
              <text y="6">0</text>
            </g>
          </g>
          <g>
            <g transform="translate(375)">
              <text y="6">0</text>
            </g>
            <g transform="translate(355)">
              <text y="6">0</text>
            </g>
            <g transform="translate(335)">
              <text y="6">0</text>
            </g>
          </g>
          <g transform="translate(276)">
            <text y="6">
              <tspan>RegSrc0 = DstAddr</tspan>
            </text>
          </g>
          <g transform="translate(177)">
            <text y="6">
              <tspan>RegSrc1 = SrcAddr</tspan>
            </text>
          </g>
          <g>
            <g transform="translate(118)">
              <text y="6">0</text>
            </g>
            <g transform="translate(99)">
              <text y="6">0</text>
            </g>
          </g>
          <g transform="translate(39)">
            <text y="6">
              <tspan>RegSrc2=Size</tspan>
            </text>
          </g>
        </g>
        <g transform="translate(10,63)"/>
      </g>
    </g>
    <g transform="translate(4,421)">
      <g stroke="black" stroke-width="1" stroke-linecap="round">
        <line x2="631"/>
        <line y2="55"/>
        <line x2="631" y1="55" y2="55"/>
        <line x1="631" x2="631" y2="55"/>
        <line x1="611" x2="611" y2="6"/>
        <line x1="611" x2="611" y1="55" y2="49"/>
        <line x1="592" x2="592" y2="6"/>
        <line x1="592" x2="592" y1="55" y2="49"/>
        <line x1="572" x2="572" y2="6"/>
        <line x1="572" x2="572" y1="55" y2="49"/>
        <line x1="552" x2="552" y2="55"/>
        <line x1="532" x2="532" y2="6"/>
        <line x1="532" x2="532" y1="55" y2="49"/>
        <line x1="513" x2="513" y2="6"/>
        <line x1="513" x2="513" y1="55" y2="49"/>
        <line x1="493" x2="493" y2="55"/>
        <line x1="473" x2="473" y2="6"/>
        <line x1="473" x2="473" y1="55" y2="49"/>
        <line x1="454" x2="454" y2="6"/>
        <line x1="454" x2="454" y1="55" y2="49"/>
        <line x1="434" x2="434" y2="6"/>
        <line x1="434" x2="434" y1="55" y2="49"/>
        <line x1="414" x2="414" y2="6"/>
        <line x1="414" x2="414" y1="55" y2="49"/>
        <line x1="394" x2="394" y2="55"/>
        <line x1="375" x2="375" y2="6"/>
        <line x1="375" x2="375" y1="55" y2="49"/>
        <line x1="355" x2="355" y2="6"/>
        <line x1="355" x2="355" y1="55" y2="49"/>
        <line x1="335" x2="335" y2="55"/>
        <line x1="316" x2="316" y2="6"/>
        <line x1="316" x2="316" y1="55" y2="49"/>
        <line x1="296" x2="296" y2="6"/>
        <line x1="296" x2="296" y1="55" y2="49"/>
        <line x1="276" x2="276" y2="6"/>
        <line x1="276" x2="276" y1="55" y2="49"/>
        <line x1="256" x2="256" y2="6"/>
        <line x1="256" x2="256" y1="55" y2="49"/>
        <line x1="237" x2="237" y2="55"/>
        <line x1="217" x2="217" y2="6"/>
        <line x1="217" x2="217" y1="55" y2="49"/>
        <line x1="197" x2="197" y2="6"/>
        <line x1="197" x2="197" y1="55" y2="49"/>
        <line x1="177" x2="177" y2="6"/>
        <line x1="177" x2="177" y1="55" y2="49"/>
        <line x1="158" x2="158" y2="6"/>
        <line x1="158" x2="158" y1="55" y2="49"/>
        <line x1="138" x2="138" y2="55"/>
        <line x1="118" x2="118" y2="6"/>
        <line x1="118" x2="118" y1="55" y2="49"/>
        <line x1="99" x2="99" y2="55"/>
        <line x1="79" x2="79" y2="6"/>
        <line x1="79" x2="79" y1="55" y2="49"/>
        <line x1="59" x2="59" y2="6"/>
        <line x1="59" x2="59" y1="55" y2="49"/>
        <line x1="39" x2="39" y2="6"/>
        <line x1="39" x2="39" y1="55" y2="49"/>
        <line x1="20" x2="20" y2="6"/>
        <line x1="20" x2="20" y1="55" y2="49"/>
      </g>
      <g>
        <g>
          <rect x="552" width="79" height="55" field="1" style="fill-opacity:0.1"/>
          <rect x="493" width="59" height="55" field="3" style="fill-opacity:0.1;fill:#ffbf00"/>
          <rect x="335" width="59" height="55" field="0" style="fill-opacity:0.1;fill:#00ffd5"/>
          <rect x="237" width="99" height="55" field="RegSrc0 = DstAddr" style="fill-opacity:0.1"/>
          <rect x="138" width="99" height="55" field="RegSrc1 = SrcAddr" style="fill-opacity:0.1"/>
          <rect width="99" height="55" field="RegSrc2=Size" style="fill-opacity:0.1"/>
        </g>
        <g transform="translate(10,-11)">
          <g transform="translate(611)">
            <text y="6">32</text>
          </g>
          <g transform="translate(552)">
            <text y="6">35</text>
          </g>
          <g transform="translate(532)">
            <text y="6">36</text>
          </g>
          <g transform="translate(493)">
            <text y="6">38</text>
          </g>
          <g transform="translate(473)">
            <text y="6">39</text>
          </g>
          <g transform="translate(394)">
            <text y="6">43</text>
          </g>
          <g transform="translate(375)">
            <text y="6">44</text>
          </g>
          <g transform="translate(335)">
            <text y="6">46</text>
          </g>
          <g transform="translate(316)">
            <text y="6">47</text>
          </g>
          <g transform="translate(237)">
            <text y="6">51</text>
          </g>
          <g transform="translate(217)">
            <text y="6">52</text>
          </g>
          <g transform="translate(138)">
            <text y="6">56</text>
          </g>
          <g transform="translate(118)">
            <text y="6">57</text>
          </g>
          <g transform="translate(99)">
            <text y="6">58</text>
          </g>
          <g transform="translate(79)">
            <text y="6">59</text>
          </g>
          <g transform="translate(0)">
            <text y="6">63</text>
          </g>
        </g>
        <g transform="translate(10,27)">
          <g>
            <g transform="translate(611)">
              <text y="6">1</text>
            </g>
            <g transform="translate(592)">
              <text y="6">0</text>
            </g>
            <g transform="translate(572)">
              <text y="6">0</text>
            </g>
            <g transform="translate(552)">
              <text y="6">0</text>
            </g>
          </g>
          <g>
            <g transform="translate(532)">
              <text y="6">1</text>
            </g>
            <g transform="translate(513)">
              <text y="6">1</text>
            </g>
            <g transform="translate(493)">
              <text y="6">0</text>
            </g>
          </g>
          <g>
            <g transform="translate(473)">
              <text y="6">0</text>
            </g>
            <g transform="translate(454)">
              <text y="6">0</text>
            </g>
            <g transform="translate(434)">
              <text y="6">0</text>
            </g>
            <g transform="translate(414)">
              <text y="6">0</text>
            </g>
            <g transform="translate(394)">
              <text y="6">0</text>
            </g>
          </g>
          <g>
            <g transform="translate(375)">
              <text y="6">0</text>
            </g>
            <g transform="translate(355)">
              <text y="6">0</text>
            </g>
            <g transform="translate(335)">
              <text y="6">0</text>
            </g>
          </g>
          <g transform="translate(276)">
            <text y="6">
              <tspan>RegSrc0 = DstAddr</tspan>
            </text>
          </g>
          <g transform="translate(177)">
            <text y="6">
              <tspan>RegSrc1 = SrcAddr</tspan>
            </text>
          </g>
          <g>
            <g transform="translate(118)">
              <text y="6">1</text>
            </g>
            <g transform="translate(99)">
              <text y="6">0</text>
            </g>
          </g>
          <g transform="translate(39)">
            <text y="6">
              <tspan>RegSrc2=Size</tspan>
            </text>
          </g>
        </g>
        <g transform="translate(10,63)"/>
      </g>
    </g>
    <g transform="translate(4,341)">
      <g stroke="black" stroke-width="1" stroke-linecap="round">
        <line x2="631"/>
        <line y2="55"/>
        <line x2="631" y1="55" y2="55"/>
        <line x1="631" x2="631" y2="55"/>
        <line x1="611" x2="611" y2="6"/>
        <line x1="611" x2="611" y1="55" y2="49"/>
        <line x1="592" x2="592" y2="6"/>
        <line x1="592" x2="592" y1="55" y2="49"/>
        <line x1="572" x2="572" y2="6"/>
        <line x1="572" x2="572" y1="55" y2="49"/>
        <line x1="552" x2="552" y2="55"/>
        <line x1="532" x2="532" y2="6"/>
        <line x1="532" x2="532" y1="55" y2="49"/>
        <line x1="513" x2="513" y2="6"/>
        <line x1="513" x2="513" y1="55" y2="49"/>
        <line x1="493" x2="493" y2="55"/>
        <line x1="473" x2="473" y2="6"/>
        <line x1="473" x2="473" y1="55" y2="49"/>
        <line x1="454" x2="454" y2="6"/>
        <line x1="454" x2="454" y1="55" y2="49"/>
        <line x1="434" x2="434" y2="6"/>
        <line x1="434" x2="434" y1="55" y2="49"/>
        <line x1="414" x2="414" y2="6"/>
        <line x1="414" x2="414" y1="55" y2="49"/>
        <line x1="394" x2="394" y2="55"/>
        <line x1="375" x2="375" y2="6"/>
        <line x1="375" x2="375" y1="55" y2="49"/>
        <line x1="355" x2="355" y2="6"/>
        <line x1="355" x2="355" y1="55" y2="49"/>
        <line x1="335" x2="335" y2="55"/>
        <line x1="316" x2="316" y2="6"/>
        <line x1="316" x2="316" y1="55" y2="49"/>
        <line x1="296" x2="296" y2="6"/>
        <line x1="296" x2="296" y1="55" y2="49"/>
        <line x1="276" x2="276" y2="6"/>
        <line x1="276" x2="276" y1="55" y2="49"/>
        <line x1="256" x2="256" y2="6"/>
        <line x1="256" x2="256" y1="55" y2="49"/>
        <line x1="237" x2="237" y2="55"/>
        <line x1="217" x2="217" y2="6"/>
        <line x1="217" x2="217" y1="55" y2="49"/>
        <line x1="197" x2="197" y2="6"/>
        <line x1="197" x2="197" y1="55" y2="49"/>
        <line x1="177" x2="177" y2="6"/>
        <line x1="177" x2="177" y1="55" y2="49"/>
        <line x1="158" x2="158" y2="6"/>
        <line x1="158" x2="158" y1="55" y2="49"/>
        <line x1="138" x2="138" y2="55"/>
        <line x1="118" x2="118" y2="6"/>
        <line x1="118" x2="118" y1="55" y2="49"/>
        <line x1="99" x2="99" y2="55"/>
        <line x1="79" x2="79" y2="6"/>
        <line x1="79" x2="79" y1="55" y2="49"/>
        <line x1="59" x2="59" y2="6"/>
        <line x1="59" x2="59" y1="55" y2="49"/>
        <line x1="39" x2="39" y2="6"/>
        <line x1="39" x2="39" y1="55" y2="49"/>
        <line x1="20" x2="20" y2="6"/>
        <line x1="20" x2="20" y1="55" y2="49"/>
      </g>
      <g>
        <g>
          <rect x="552" width="79" height="55" field="1" style="fill-opacity:0.1"/>
          <rect x="493" width="59" height="55" field="3" style="fill-opacity:0.1;fill:#ffbf00"/>
          <rect x="335" width="59" height="55" field="1" style="fill-opacity:0.1;fill:#00ffd5"/>
          <rect x="237" width="99" height="55" field="RegSrc0 = DstAddr" style="fill-opacity:0.1"/>
          <rect x="138" width="99" height="55" field="RegSrc1 = Value" style="fill-opacity:0.1"/>
          <rect width="99" height="55" field="RegSrc2=Size" style="fill-opacity:0.1"/>
        </g>
        <g transform="translate(10,-11)">
          <g transform="translate(611)">
            <text y="6">64</text>
          </g>
          <g transform="translate(552)">
            <text y="6">67</text>
          </g>
          <g transform="translate(532)">
            <text y="6">68</text>
          </g>
          <g transform="translate(493)">
            <text y="6">70</text>
          </g>
          <g transform="translate(473)">
            <text y="6">71</text>
          </g>
          <g transform="translate(394)">
            <text y="6">75</text>
          </g>
          <g transform="translate(375)">
            <text y="6">76</text>
          </g>
          <g transform="translate(335)">
            <text y="6">78</text>
          </g>
          <g transform="translate(316)">
            <text y="6">79</text>
          </g>
          <g transform="translate(237)">
            <text y="6">83</text>
          </g>
          <g transform="translate(217)">
            <text y="6">84</text>
          </g>
          <g transform="translate(138)">
            <text y="6">88</text>
          </g>
          <g transform="translate(118)">
            <text y="6">89</text>
          </g>
          <g transform="translate(99)">
            <text y="6">90</text>
          </g>
          <g transform="translate(79)">
            <text y="6">91</text>
          </g>
          <g transform="translate(0)">
            <text y="6">95</text>
          </g>
        </g>
        <g transform="translate(10,27)">
          <g>
            <g transform="translate(611)">
              <text y="6">1</text>
            </g>
            <g transform="translate(592)">
              <text y="6">0</text>
            </g>
            <g transform="translate(572)">
              <text y="6">0</text>
            </g>
            <g transform="translate(552)">
              <text y="6">0</text>
            </g>
          </g>
          <g>
            <g transform="translate(532)">
              <text y="6">1</text>
            </g>
            <g transform="translate(513)">
              <text y="6">1</text>
            </g>
            <g transform="translate(493)">
              <text y="6">0</text>
            </g>
          </g>
          <g>
            <g transform="translate(473)">
              <text y="6">0</text>
            </g>
            <g transform="translate(454)">
              <text y="6">0</text>
            </g>
            <g transform="translate(434)">
              <text y="6">0</text>
            </g>
            <g transform="translate(414)">
              <text y="6">0</text>
            </g>
            <g transform="translate(394)">
              <text y="6">0</text>
            </g>
          </g>
          <g>
            <g transform="translate(375)">
              <text y="6">1</text>
            </g>
            <g transform="translate(355)">
              <text y="6">0</text>
            </g>
            <g transform="translate(335)">
              <text y="6">0</text>
            </g>
          </g>
          <g transform="translate(276)">
            <text y="6">
              <tspan>RegSrc0 = DstAddr</tspan>
            </text>
          </g>
          <g transform="translate(177)">
            <text y="6">
              <tspan>RegSrc1 = Value</tspan>
            </text>
          </g>
          <g>
            <g transform="translate(118)">
              <text y="6">0</text>
            </g>
            <g transform="translate(99)">
              <text y="6">0</text>
            </g>
          </g>
          <g transform="translate(39)">
            <text y="6">
              <tspan>RegSrc2=Size</tspan>
            </text>
          </g>
        </g>
        <g transform="translate(10,63)"/>
      </g>
    </g>
    <g transform="translate(4,261)">
      <g stroke="black" stroke-width="1" stroke-linecap="round">
        <line x2="631"/>
        <line y2="55"/>
        <line x2="631" y1="55" y2="55"/>
        <line x1="631" x2="631" y2="55"/>
        <line x1="611" x2="611" y2="6"/>
        <line x1="611" x2="611" y1="55" y2="49"/>
        <line x1="592" x2="592" y2="6"/>
        <line x1="592" x2="592" y1="55" y2="49"/>
        <line x1="572" x2="572" y2="6"/>
        <line x1="572" x2="572" y1="55" y2="49"/>
        <line x1="552" x2="552" y2="55"/>
        <line x1="532" x2="532" y2="6"/>
        <line x1="532" x2="532" y1="55" y2="49"/>
        <line x1="513" x2="513" y2="6"/>
        <line x1="513" x2="513" y1="55" y2="49"/>
        <line x1="493" x2="493" y2="55"/>
        <line x1="473" x2="473" y2="6"/>
        <line x1="473" x2="473" y1="55" y2="49"/>
        <line x1="454" x2="454" y2="6"/>
        <line x1="454" x2="454" y1="55" y2="49"/>
        <line x1="434" x2="434" y2="6"/>
        <line x1="434" x2="434" y1="55" y2="49"/>
        <line x1="414" x2="414" y2="6"/>
        <line x1="414" x2="414" y1="55" y2="49"/>
        <line x1="394" x2="394" y2="55"/>
        <line x1="375" x2="375" y2="6"/>
        <line x1="375" x2="375" y1="55" y2="49"/>
        <line x1="355" x2="355" y2="6"/>
        <line x1="355" x2="355" y1="55" y2="49"/>
        <line x1="335" x2="335" y2="55"/>
        <line x1="316" x2="316" y2="6"/>
        <line x1="316" x2="316" y1="55" y2="49"/>
        <line x1="296" x2="296" y2="6"/>
        <line x1="296" x2="296" y1="55" y2="49"/>
        <line x1="276" x2="276" y2="6"/>
        <line x1="276" x2="276" y1="55" y2="49"/>
        <line x1="256" x2="256" y2="6"/>
        <line x1="256" x2="256" y1="55" y2="49"/>
        <line x1="237" x2="237" y2="55"/>
        <line x1="217" x2="217" y2="6"/>
        <line x1="217" x2="217" y1="55" y2="49"/>
        <line x1="197" x2="197" y2="6"/>
        <line x1="197" x2="197" y1="55" y2="49"/>
        <line x1="177" x2="177" y2="6"/>
        <line x1="177" x2="177" y1="55" y2="49"/>
        <line x1="158" x2="158" y2="6"/>
        <line x1="158" x2="158" y1="55" y2="49"/>
        <line x1="138" x2="138" y2="55"/>
        <line x1="118" x2="118" y2="6"/>
        <line x1="118" x2="118" y1="55" y2="49"/>
        <line x1="99" x2="99" y2="6"/>
        <line x1="99" x2="99" y1="55" y2="49"/>
        <line x1="79" x2="79" y2="6"/>
        <line x1="79" x2="79" y1="55" y2="49"/>
        <line x1="59" x2="59" y2="6"/>
        <line x1="59" x2="59" y1="55" y2="49"/>
        <line x1="39" x2="39" y2="6"/>
        <line x1="39" x2="39" y1="55" y2="49"/>
        <line x1="20" x2="20" y2="6"/>
        <line x1="20" x2="20" y1="55" y2="49"/>
      </g>
      <g>
        <g>
          <rect x="552" width="79" height="55" field="1" style="fill-opacity:0.1"/>
          <rect x="493" width="59" height="55" field="4" style="fill-opacity:0.1;fill:#ffbf00"/>
          <rect x="394" width="99" height="55" field="uimm[14:10]" style="fill-opacity:0.1;fill:#00ff19"/>
          <rect x="335" width="59" height="55" field="0" style="fill-opacity:0.1;fill:#00ffd5"/>
          <rect x="237" width="99" height="55" field="SrcBegin" style="fill-opacity:0.1"/>
          <rect x="138" width="99" height="55" field="SrcEnd" style="fill-opacity:0.1"/>
          <rect width="138" height="55" field="uimm[9:3]" style="fill-opacity:0.1;fill:#00ff19"/>
        </g>
        <g transform="translate(10,-11)">
          <g transform="translate(611)">
            <text y="6">96</text>
          </g>
          <g transform="translate(552)">
            <text y="6">99</text>
          </g>
          <g transform="translate(532)">
            <text y="6">100</text>
          </g>
          <g transform="translate(493)">
            <text y="6">102</text>
          </g>
          <g transform="translate(473)">
            <text y="6">103</text>
          </g>
          <g transform="translate(394)">
            <text y="6">107</text>
          </g>
          <g transform="translate(375)">
            <text y="6">108</text>
          </g>
          <g transform="translate(335)">
            <text y="6">110</text>
          </g>
          <g transform="translate(316)">
            <text y="6">111</text>
          </g>
          <g transform="translate(237)">
            <text y="6">115</text>
          </g>
          <g transform="translate(217)">
            <text y="6">116</text>
          </g>
          <g transform="translate(138)">
            <text y="6">120</text>
          </g>
          <g transform="translate(118)">
            <text y="6">121</text>
          </g>
          <g transform="translate(0)">
            <text y="6">127</text>
          </g>
        </g>
        <g transform="translate(10,27)">
          <g>
            <g transform="translate(611)">
              <text y="6">1</text>
            </g>
            <g transform="translate(592)">
              <text y="6">0</text>
            </g>
            <g transform="translate(572)">
              <text y="6">0</text>
            </g>
            <g transform="translate(552)">
              <text y="6">0</text>
            </g>
          </g>
          <g>
            <g transform="translate(532)">
              <text y="6">0</text>
            </g>
            <g transform="translate(513)">
              <text y="6">0</text>
            </g>
            <g transform="translate(493)">
              <text y="6">1</text>
            </g>
          </g>
          <g transform="translate(434)">
            <text y="6">
              <tspan>uimm[14:10]</tspan>
            </text>
          </g>
          <g>
            <g transform="translate(375)">
              <text y="6">0</text>
            </g>
            <g transform="translate(355)">
              <text y="6">0</text>
            </g>
            <g transform="translate(335)">
              <text y="6">0</text>
            </g>
          </g>
          <g transform="translate(276)">
            <text y="6">
              <tspan>SrcBegin</tspan>
            </text>
          </g>
          <g transform="translate(177)">
            <text y="6">
              <tspan>SrcEnd</tspan>
            </text>
          </g>
          <g transform="translate(59)">
            <text y="6">
              <tspan>uimm[9:3]</tspan>
            </text>
          </g>
        </g>
        <g transform="translate(10,63)"/>
      </g>
    </g>
    <g transform="translate(4,181)">
      <g stroke="black" stroke-width="1" stroke-linecap="round">
        <line x2="631"/>
        <line y2="55"/>
        <line x2="631" y1="55" y2="55"/>
        <line x1="631" x2="631" y2="55"/>
        <line x1="611" x2="611" y2="6"/>
        <line x1="611" x2="611" y1="55" y2="49"/>
        <line x1="592" x2="592" y2="6"/>
        <line x1="592" x2="592" y1="55" y2="49"/>
        <line x1="572" x2="572" y2="6"/>
        <line x1="572" x2="572" y1="55" y2="49"/>
        <line x1="552" x2="552" y2="55"/>
        <line x1="532" x2="532" y2="6"/>
        <line x1="532" x2="532" y1="55" y2="49"/>
        <line x1="513" x2="513" y2="6"/>
        <line x1="513" x2="513" y1="55" y2="49"/>
        <line x1="493" x2="493" y2="55"/>
        <line x1="473" x2="473" y2="6"/>
        <line x1="473" x2="473" y1="55" y2="49"/>
        <line x1="454" x2="454" y2="6"/>
        <line x1="454" x2="454" y1="55" y2="49"/>
        <line x1="434" x2="434" y2="6"/>
        <line x1="434" x2="434" y1="55" y2="49"/>
        <line x1="414" x2="414" y2="6"/>
        <line x1="414" x2="414" y1="55" y2="49"/>
        <line x1="394" x2="394" y2="55"/>
        <line x1="375" x2="375" y2="6"/>
        <line x1="375" x2="375" y1="55" y2="49"/>
        <line x1="355" x2="355" y2="6"/>
        <line x1="355" x2="355" y1="55" y2="49"/>
        <line x1="335" x2="335" y2="55"/>
        <line x1="316" x2="316" y2="6"/>
        <line x1="316" x2="316" y1="55" y2="49"/>
        <line x1="296" x2="296" y2="6"/>
        <line x1="296" x2="296" y1="55" y2="49"/>
        <line x1="276" x2="276" y2="6"/>
        <line x1="276" x2="276" y1="55" y2="49"/>
        <line x1="256" x2="256" y2="6"/>
        <line x1="256" x2="256" y1="55" y2="49"/>
        <line x1="237" x2="237" y2="55"/>
        <line x1="217" x2="217" y2="6"/>
        <line x1="217" x2="217" y1="55" y2="49"/>
        <line x1="197" x2="197" y2="6"/>
        <line x1="197" x2="197" y1="55" y2="49"/>
        <line x1="177" x2="177" y2="6"/>
        <line x1="177" x2="177" y1="55" y2="49"/>
        <line x1="158" x2="158" y2="6"/>
        <line x1="158" x2="158" y1="55" y2="49"/>
        <line x1="138" x2="138" y2="55"/>
        <line x1="118" x2="118" y2="6"/>
        <line x1="118" x2="118" y1="55" y2="49"/>
        <line x1="99" x2="99" y2="6"/>
        <line x1="99" x2="99" y1="55" y2="49"/>
        <line x1="79" x2="79" y2="6"/>
        <line x1="79" x2="79" y1="55" y2="49"/>
        <line x1="59" x2="59" y2="6"/>
        <line x1="59" x2="59" y1="55" y2="49"/>
        <line x1="39" x2="39" y2="6"/>
        <line x1="39" x2="39" y1="55" y2="49"/>
        <line x1="20" x2="20" y2="6"/>
        <line x1="20" x2="20" y1="55" y2="49"/>
      </g>
      <g>
        <g>
          <rect x="552" width="79" height="55" field="1" style="fill-opacity:0.1"/>
          <rect x="493" width="59" height="55" field="4" style="fill-opacity:0.1;fill:#ffbf00"/>
          <rect x="394" width="99" height="55" field="uimm[14:10]" style="fill-opacity:0.1;fill:#00ff19"/>
          <rect x="335" width="59" height="55" field="1" style="fill-opacity:0.1;fill:#00ffd5"/>
          <rect x="237" width="99" height="55" field="DstBegin" style="fill-opacity:0.1"/>
          <rect x="138" width="99" height="55" field="DstEnd" style="fill-opacity:0.1"/>
          <rect width="138" height="55" field="uimm[9:3]" style="fill-opacity:0.1;fill:#00ff19"/>
        </g>
        <g transform="translate(10,-11)">
          <g transform="translate(611)">
            <text y="6">128</text>
          </g>
          <g transform="translate(552)">
            <text y="6">131</text>
          </g>
          <g transform="translate(532)">
            <text y="6">132</text>
          </g>
          <g transform="translate(493)">
            <text y="6">134</text>
          </g>
          <g transform="translate(473)">
            <text y="6">135</text>
          </g>
          <g transform="translate(394)">
            <text y="6">139</text>
          </g>
          <g transform="translate(375)">
            <text y="6">140</text>
          </g>
          <g transform="translate(335)">
            <text y="6">142</text>
          </g>
          <g transform="translate(316)">
            <text y="6">143</text>
          </g>
          <g transform="translate(237)">
            <text y="6">147</text>
          </g>
          <g transform="translate(217)">
            <text y="6">148</text>
          </g>
          <g transform="translate(138)">
            <text y="6">152</text>
          </g>
          <g transform="translate(118)">
            <text y="6">153</text>
          </g>
          <g transform="translate(0)">
            <text y="6">159</text>
          </g>
        </g>
        <g transform="translate(10,27)">
          <g>
            <g transform="translate(611)">
              <text y="6">1</text>
            </g>
            <g transform="translate(592)">
              <text y="6">0</text>
            </g>
            <g transform="translate(572)">
              <text y="6">0</text>
            </g>
            <g transform="translate(552)">
              <text y="6">0</text>
            </g>
          </g>
          <g>
            <g transform="translate(532)">
              <text y="6">0</text>
            </g>
            <g transform="translate(513)">
              <text y="6">0</text>
            </g>
            <g transform="translate(493)">
              <text y="6">1</text>
            </g>
          </g>
          <g transform="translate(434)">
            <text y="6">
              <tspan>uimm[14:10]</tspan>
            </text>
          </g>
          <g>
            <g transform="translate(375)">
              <text y="6">1</text>
            </g>
            <g transform="translate(355)">
              <text y="6">0</text>
            </g>
            <g transform="translate(335)">
              <text y="6">0</text>
            </g>
          </g>
          <g transform="translate(276)">
            <text y="6">
              <tspan>DstBegin</tspan>
            </text>
          </g>
          <g transform="translate(177)">
            <text y="6">
              <tspan>DstEnd</tspan>
            </text>
          </g>
          <g transform="translate(59)">
            <text y="6">
              <tspan>uimm[9:3]</tspan>
            </text>
          </g>
        </g>
        <g transform="translate(10,63)"/>
      </g>
    </g>
    <g transform="translate(4,101)">
      <g stroke="black" stroke-width="1" stroke-linecap="round">
        <line x2="631"/>
        <line y2="55"/>
        <line x2="631" y1="55" y2="55"/>
        <line x1="631" x2="631" y2="55"/>
        <line x1="611" x2="611" y2="6"/>
        <line x1="611" x2="611" y1="55" y2="49"/>
        <line x1="592" x2="592" y2="6"/>
        <line x1="592" x2="592" y1="55" y2="49"/>
        <line x1="572" x2="572" y2="6"/>
        <line x1="572" x2="572" y1="55" y2="49"/>
        <line x1="552" x2="552" y2="55"/>
        <line x1="532" x2="532" y2="6"/>
        <line x1="532" x2="532" y1="55" y2="49"/>
        <line x1="513" x2="513" y2="6"/>
        <line x1="513" x2="513" y1="55" y2="49"/>
        <line x1="493" x2="493" y2="55"/>
        <line x1="473" x2="473" y2="6"/>
        <line x1="473" x2="473" y1="55" y2="49"/>
        <line x1="454" x2="454" y2="6"/>
        <line x1="454" x2="454" y1="55" y2="49"/>
        <line x1="434" x2="434" y2="6"/>
        <line x1="434" x2="434" y1="55" y2="49"/>
        <line x1="414" x2="414" y2="6"/>
        <line x1="414" x2="414" y1="55" y2="49"/>
        <line x1="394" x2="394" y2="55"/>
        <line x1="375" x2="375" y2="6"/>
        <line x1="375" x2="375" y1="55" y2="49"/>
        <line x1="355" x2="355" y2="6"/>
        <line x1="355" x2="355" y1="55" y2="49"/>
        <line x1="335" x2="335" y2="55"/>
        <line x1="316" x2="316" y2="6"/>
        <line x1="316" x2="316" y1="55" y2="49"/>
        <line x1="296" x2="296" y2="6"/>
        <line x1="296" x2="296" y1="55" y2="49"/>
        <line x1="276" x2="276" y2="6"/>
        <line x1="276" x2="276" y1="55" y2="49"/>
        <line x1="256" x2="256" y2="6"/>
        <line x1="256" x2="256" y1="55" y2="49"/>
        <line x1="237" x2="237" y2="55"/>
        <line x1="217" x2="217" y2="6"/>
        <line x1="217" x2="217" y1="55" y2="49"/>
        <line x1="197" x2="197" y2="6"/>
        <line x1="197" x2="197" y1="55" y2="49"/>
        <line x1="177" x2="177" y2="6"/>
        <line x1="177" x2="177" y1="55" y2="49"/>
        <line x1="158" x2="158" y2="6"/>
        <line x1="158" x2="158" y1="55" y2="49"/>
        <line x1="138" x2="138" y2="55"/>
        <line x1="118" x2="118" y2="6"/>
        <line x1="118" x2="118" y1="55" y2="49"/>
        <line x1="99" x2="99" y2="6"/>
        <line x1="99" x2="99" y1="55" y2="49"/>
        <line x1="79" x2="79" y2="6"/>
        <line x1="79" x2="79" y1="55" y2="49"/>
        <line x1="59" x2="59" y2="6"/>
        <line x1="59" x2="59" y1="55" y2="49"/>
        <line x1="39" x2="39" y2="6"/>
        <line x1="39" x2="39" y1="55" y2="49"/>
        <line x1="20" x2="20" y2="6"/>
        <line x1="20" x2="20" y1="55" y2="49"/>
      </g>
      <g>
        <g>
          <rect x="552" width="79" height="55" field="1" style="fill-opacity:0.1"/>
          <rect x="493" width="59" height="55" field="4" style="fill-opacity:0.1;fill:#ffbf00"/>
          <rect x="394" width="99" height="55" field="uimm[14:10]" style="fill-opacity:0.1;fill:#00ff19"/>
          <rect x="335" width="59" height="55" field="2" style="fill-opacity:0.1;fill:#00ffd5"/>
          <rect x="237" width="99" height="55" field="DstBegin" style="fill-opacity:0.1"/>
          <rect x="138" width="99" height="55" field="DstEnd" style="fill-opacity:0.1"/>
          <rect width="138" height="55" field="uimm[9:3]" style="fill-opacity:0.1;fill:#00ff19"/>
        </g>
        <g transform="translate(10,-11)">
          <g transform="translate(611)">
            <text y="6">160</text>
          </g>
          <g transform="translate(552)">
            <text y="6">163</text>
          </g>
          <g transform="translate(532)">
            <text y="6">164</text>
          </g>
          <g transform="translate(493)">
            <text y="6">166</text>
          </g>
          <g transform="translate(473)">
            <text y="6">167</text>
          </g>
          <g transform="translate(394)">
            <text y="6">171</text>
          </g>
          <g transform="translate(375)">
            <text y="6">172</text>
          </g>
          <g transform="translate(335)">
            <text y="6">174</text>
          </g>
          <g transform="translate(316)">
            <text y="6">175</text>
          </g>
          <g transform="translate(237)">
            <text y="6">179</text>
          </g>
          <g transform="translate(217)">
            <text y="6">180</text>
          </g>
          <g transform="translate(138)">
            <text y="6">184</text>
          </g>
          <g transform="translate(118)">
            <text y="6">185</text>
          </g>
          <g transform="translate(0)">
            <text y="6">191</text>
          </g>
        </g>
        <g transform="translate(10,27)">
          <g>
            <g transform="translate(611)">
              <text y="6">1</text>
            </g>
            <g transform="translate(592)">
              <text y="6">0</text>
            </g>
            <g transform="translate(572)">
              <text y="6">0</text>
            </g>
            <g transform="translate(552)">
              <text y="6">0</text>
            </g>
          </g>
          <g>
            <g transform="translate(532)">
              <text y="6">0</text>
            </g>
            <g transform="translate(513)">
              <text y="6">0</text>
            </g>
            <g transform="translate(493)">
              <text y="6">1</text>
            </g>
          </g>
          <g transform="translate(434)">
            <text y="6">
              <tspan>uimm[14:10]</tspan>
            </text>
          </g>
          <g>
            <g transform="translate(375)">
              <text y="6">0</text>
            </g>
            <g transform="translate(355)">
              <text y="6">1</text>
            </g>
            <g transform="translate(335)">
              <text y="6">0</text>
            </g>
          </g>
          <g transform="translate(276)">
            <text y="6">
              <tspan>DstBegin</tspan>
            </text>
          </g>
          <g transform="translate(177)">
            <text y="6">
              <tspan>DstEnd</tspan>
            </text>
          </g>
          <g transform="translate(59)">
            <text y="6">
              <tspan>uimm[9:3]</tspan>
            </text>
          </g>
        </g>
        <g transform="translate(10,63)"/>
      </g>
    </g>
    <g transform="translate(4,21)">
      <g stroke="black" stroke-width="1" stroke-linecap="round">
        <line x2="631"/>
        <line y2="55"/>
        <line x2="631" y1="55" y2="55"/>
        <line x1="631" x2="631" y2="55"/>
        <line x1="611" x2="611" y2="6"/>
        <line x1="611" x2="611" y1="55" y2="49"/>
        <line x1="592" x2="592" y2="6"/>
        <line x1="592" x2="592" y1="55" y2="49"/>
        <line x1="572" x2="572" y2="6"/>
        <line x1="572" x2="572" y1="55" y2="49"/>
        <line x1="552" x2="552" y2="55"/>
        <line x1="532" x2="532" y2="6"/>
        <line x1="532" x2="532" y1="55" y2="49"/>
        <line x1="513" x2="513" y2="6"/>
        <line x1="513" x2="513" y1="55" y2="49"/>
        <line x1="493" x2="493" y2="55"/>
        <line x1="473" x2="473" y2="6"/>
        <line x1="473" x2="473" y1="55" y2="49"/>
        <line x1="454" x2="454" y2="6"/>
        <line x1="454" x2="454" y1="55" y2="49"/>
        <line x1="434" x2="434" y2="6"/>
        <line x1="434" x2="434" y1="55" y2="49"/>
        <line x1="414" x2="414" y2="6"/>
        <line x1="414" x2="414" y1="55" y2="49"/>
        <line x1="394" x2="394" y2="55"/>
        <line x1="375" x2="375" y2="6"/>
        <line x1="375" x2="375" y1="55" y2="49"/>
        <line x1="355" x2="355" y2="6"/>
        <line x1="355" x2="355" y1="55" y2="49"/>
        <line x1="335" x2="335" y2="55"/>
        <line x1="316" x2="316" y2="6"/>
        <line x1="316" x2="316" y1="55" y2="49"/>
        <line x1="296" x2="296" y2="6"/>
        <line x1="296" x2="296" y1="55" y2="49"/>
        <line x1="276" x2="276" y2="6"/>
        <line x1="276" x2="276" y1="55" y2="49"/>
        <line x1="256" x2="256" y2="6"/>
        <line x1="256" x2="256" y1="55" y2="49"/>
        <line x1="237" x2="237" y2="55"/>
        <line x1="217" x2="217" y2="6"/>
        <line x1="217" x2="217" y1="55" y2="49"/>
        <line x1="197" x2="197" y2="6"/>
        <line x1="197" x2="197" y1="55" y2="49"/>
        <line x1="177" x2="177" y2="6"/>
        <line x1="177" x2="177" y1="55" y2="49"/>
        <line x1="158" x2="158" y2="6"/>
        <line x1="158" x2="158" y1="55" y2="49"/>
        <line x1="138" x2="138" y2="55"/>
        <line x1="118" x2="118" y2="6"/>
        <line x1="118" x2="118" y1="55" y2="49"/>
        <line x1="99" x2="99" y2="6"/>
        <line x1="99" x2="99" y1="55" y2="49"/>
        <line x1="79" x2="79" y2="6"/>
        <line x1="79" x2="79" y1="55" y2="49"/>
        <line x1="59" x2="59" y2="6"/>
        <line x1="59" x2="59" y1="55" y2="49"/>
        <line x1="39" x2="39" y2="6"/>
        <line x1="39" x2="39" y1="55" y2="49"/>
        <line x1="20" x2="20" y2="6"/>
        <line x1="20" x2="20" y1="55" y2="49"/>
      </g>
      <g>
        <g>
          <rect x="552" width="79" height="55" field="1" style="fill-opacity:0.1"/>
          <rect x="493" width="59" height="55" field="4" style="fill-opacity:0.1;fill:#ffbf00"/>
          <rect x="394" width="99" height="55" field="uimm[14:10]" style="fill-opacity:0.1;fill:#00ff19"/>
          <rect x="335" width="59" height="55" field="3" style="fill-opacity:0.1;fill:#00ffd5"/>
          <rect x="237" width="99" height="55" field="DstBegin" style="fill-opacity:0.1"/>
          <rect x="138" width="99" height="55" field="DstEnd" style="fill-opacity:0.1"/>
          <rect width="138" height="55" field="uimm[9:3]" style="fill-opacity:0.1;fill:#00ff19"/>
        </g>
        <g transform="translate(10,-11)">
          <g transform="translate(611)">
            <text y="6">192</text>
          </g>
          <g transform="translate(552)">
            <text y="6">195</text>
          </g>
          <g transform="translate(532)">
            <text y="6">196</text>
          </g>
          <g transform="translate(493)">
            <text y="6">198</text>
          </g>
          <g transform="translate(473)">
            <text y="6">199</text>
          </g>
          <g transform="translate(394)">
            <text y="6">203</text>
          </g>
          <g transform="translate(375)">
            <text y="6">204</text>
          </g>
          <g transform="translate(335)">
            <text y="6">206</text>
          </g>
          <g transform="translate(316)">
            <text y="6">207</text>
          </g>
          <g transform="translate(237)">
            <text y="6">211</text>
          </g>
          <g transform="translate(217)">
            <text y="6">212</text>
          </g>
          <g transform="translate(138)">
            <text y="6">216</text>
          </g>
          <g transform="translate(118)">
            <text y="6">217</text>
          </g>
          <g transform="translate(0)">
            <text y="6">223</text>
          </g>
        </g>
        <g transform="translate(10,27)">
          <g>
            <g transform="translate(611)">
              <text y="6">1</text>
            </g>
            <g transform="translate(592)">
              <text y="6">0</text>
            </g>
            <g transform="translate(572)">
              <text y="6">0</text>
            </g>
            <g transform="translate(552)">
              <text y="6">0</text>
            </g>
          </g>
          <g>
            <g transform="translate(532)">
              <text y="6">0</text>
            </g>
            <g transform="translate(513)">
              <text y="6">0</text>
            </g>
            <g transform="translate(493)">
              <text y="6">1</text>
            </g>
          </g>
          <g transform="translate(434)">
            <text y="6">
              <tspan>uimm[14:10]</tspan>
            </text>
          </g>
          <g>
            <g transform="translate(375)">
              <text y="6">1</text>
            </g>
            <g transform="translate(355)">
              <text y="6">1</text>
            </g>
            <g transform="translate(335)">
              <text y="6">0</text>
            </g>
          </g>
          <g transform="translate(276)">
            <text y="6">
              <tspan>DstBegin</tspan>
            </text>
          </g>
          <g transform="translate(177)">
            <text y="6">
              <tspan>DstEnd</tspan>
            </text>
          </g>
          <g transform="translate(59)">
            <text y="6">
              <tspan>uimm[9:3]</tspan>
            </text>
          </g>
        </g>
        <g transform="translate(10,63)"/>
      </g>
    </g>
  </g>
</svg>

