<svg xmlns="http://www.w3.org/2000/svg" width="640" height="80" viewBox="0 0 640 80">
  <g transform="translate(0.5,0.5)" text-anchor="middle" font-size="14" font-family="sans-serif" font-weight="normal">
    <g transform="translate(4,21)">
      <g stroke="black" stroke-width="1" stroke-linecap="round">
        <line x2="631"/>
        <line y2="41"/>
        <line x2="631" y1="41" y2="41"/>
        <line x1="631" x2="631" y2="41"/>
        <line x1="592" x2="592" y2="41"/>
        <line x1="552" x2="552" y2="41"/>
        <line x1="513" x2="513" y2="5"/>
        <line x1="513" x2="513" y1="41" y2="36"/>
        <line x1="473" x2="473" y2="5"/>
        <line x1="473" x2="473" y1="41" y2="36"/>
        <line x1="434" x2="434" y2="5"/>
        <line x1="434" x2="434" y1="41" y2="36"/>
        <line x1="394" x2="394" y2="5"/>
        <line x1="394" x2="394" y1="41" y2="36"/>
        <line x1="355" x2="355" y2="5"/>
        <line x1="355" x2="355" y1="41" y2="36"/>
        <line x1="316" x2="316" y2="5"/>
        <line x1="316" x2="316" y1="41" y2="36"/>
        <line x1="276" x2="276" y2="5"/>
        <line x1="276" x2="276" y1="41" y2="36"/>
        <line x1="237" x2="237" y2="5"/>
        <line x1="237" x2="237" y1="41" y2="36"/>
        <line x1="197" x2="197" y2="5"/>
        <line x1="197" x2="197" y1="41" y2="36"/>
        <line x1="158" x2="158" y2="41"/>
        <line x1="118" x2="118" y2="5"/>
        <line x1="118" x2="118" y1="41" y2="36"/>
        <line x1="79" x2="79" y2="5"/>
        <line x1="79" x2="79" y1="41" y2="36"/>
        <line x1="39" x2="39" y2="5"/>
        <line x1="39" x2="39" y1="41" y2="36"/>
      </g>
      <g>
        <g>
          <rect x="592" width="39" height="41" field="0" style="fill-opacity:0.1"/>
          <rect x="552" width="39" height="41" field="1" style="fill-opacity:0.1;fill:#ff0000"/>
          <rect x="158" width="394" height="41" field="imm" style="fill-opacity:0.1;fill:#006aff"/>
          <rect width="158" height="41" field="Opcode" style="fill-opacity:0.1;fill:#ffbf00"/>
        </g>
        <g transform="translate(20,-11)">
          <g transform="translate(592)">
            <text y="6">0</text>
          </g>
          <g transform="translate(552)">
            <text y="6">1</text>
          </g>
          <g transform="translate(513)">
            <text y="6">2</text>
          </g>
          <g transform="translate(158)">
            <text y="6">11</text>
          </g>
          <g transform="translate(118)">
            <text y="6">12</text>
          </g>
          <g transform="translate(0)">
            <text y="6">15</text>
          </g>
        </g>
        <g transform="translate(20,20)">
          <g>
            <g transform="translate(592)">
              <text y="6">0</text>
            </g>
          </g>
          <g>
            <g transform="translate(552)">
              <text y="6">1</text>
            </g>
          </g>
          <g transform="translate(335)">
            <text y="6">
              <tspan>imm</tspan>
            </text>
          </g>
          <g transform="translate(59)">
            <text y="6">
              <tspan>Opcode</tspan>
            </text>
          </g>
        </g>
        <g transform="translate(20,49)">
          <g transform="translate(552)">
            <text y="6">
              <tspan>Layer</tspan>
            </text>
          </g>
        </g>
      </g>
    </g>
  </g>
</svg>

