<svg xmlns="http://www.w3.org/2000/svg" viewBox="0 0 960 128" width="960" height="128">
  <defs><style>text{font-family:"Courier New",monospace}</style></defs>
  <text x="10" y="17" font-family="Helvetica Neue,Arial" font-weight="bold" font-size="14" fill="#1A1A2E">V.FGES</text>
  <text x="17.34" y="9" text-anchor="middle" font-size="8" fill="#888888">63</text>
  <text x="61.41" y="9" text-anchor="middle" font-size="8" fill="#888888">60</text>
  <text x="120.16" y="9" text-anchor="middle" font-size="8" fill="#888888">56</text>
  <text x="178.91" y="9" text-anchor="middle" font-size="8" fill="#888888">52</text>
  <text x="237.66" y="9" text-anchor="middle" font-size="8" fill="#888888">48</text>
  <text x="296.41" y="9" text-anchor="middle" font-size="8" fill="#888888">44</text>
  <text x="355.16" y="9" text-anchor="middle" font-size="8" fill="#888888">40</text>
  <text x="413.91" y="9" text-anchor="middle" font-size="8" fill="#888888">36</text>
  <text x="472.66" y="9" text-anchor="middle" font-size="8" fill="#888888">32</text>
  <text x="531.41" y="9" text-anchor="middle" font-size="8" fill="#888888">28</text>
  <text x="590.16" y="9" text-anchor="middle" font-size="8" fill="#888888">24</text>
  <text x="648.91" y="9" text-anchor="middle" font-size="8" fill="#888888">20</text>
  <text x="707.66" y="9" text-anchor="middle" font-size="8" fill="#888888">16</text>
  <text x="766.41" y="9" text-anchor="middle" font-size="8" fill="#888888">12</text>
  <text x="825.16" y="9" text-anchor="middle" font-size="8" fill="#888888">8</text>
  <text x="883.91" y="9" text-anchor="middle" font-size="8" fill="#888888">4</text>
  <text x="942.66" y="9" text-anchor="middle" font-size="8" fill="#888888">0</text>
  <rect x="10" y="28" width="940.00" height="74" fill="none" stroke="#555555" stroke-width="0.8"/>
  <rect x="480.000" y="29" width="73.438" height="72" fill="#E0E0E0" stroke="white" stroke-width="0.5" rx="1"/>
  <rect x="553.438" y="29" width="29.375" height="72" fill="#E0E0E0" stroke="white" stroke-width="0.5" rx="1"/>
  <rect x="582.812" y="29" width="73.438" height="72" fill="#5BBFAA" stroke="white" stroke-width="0.5" rx="1"/>
  <text x="619.5" y="68.5" text-anchor="middle" dominant-baseline="middle" font-size="8.5" fill="#1A3A32" pointer-events="none">SrcR[9:5</text>
  <rect x="656.250" y="29" width="73.438" height="72" fill="#6EC9D8" stroke="white" stroke-width="0.5" rx="1"/>
  <text x="693.0" y="68.5" text-anchor="middle" dominant-baseline="middle" font-size="8.5" fill="#1A3F47" pointer-events="none">SrcL[9:5</text>
  <rect x="729.688" y="29" width="14.688" height="72" fill="#E0E0E0" stroke="white" stroke-width="0.5" rx="1"/>
  <rect x="744.375" y="29" width="14.688" height="72" fill="#E0E0E0" stroke="white" stroke-width="0.5" rx="1"/>
  <rect x="759.062" y="29" width="14.688" height="72" fill="#E0E0E0" stroke="white" stroke-width="0.5" rx="1"/>
  <rect x="773.750" y="29" width="73.438" height="72" fill="#82C77A" stroke="white" stroke-width="0.5" rx="1"/>
  <text x="810.5" y="68.5" text-anchor="middle" dominant-baseline="middle" font-size="8.5" fill="#1A4A1C" pointer-events="none">RegDst[9</text>
  <rect x="847.188" y="29" width="44.062" height="72" fill="#C8C8C8" stroke="white" stroke-width="0.5" rx="1"/>
  <text x="869.2" y="68.5" text-anchor="middle" dominant-baseline="middle" font-size="8.5" fill="#424242" pointer-events="none">111</text>
  <rect x="891.250" y="29" width="44.062" height="72" fill="#C8C8C8" stroke="white" stroke-width="0.5" rx="1"/>
  <text x="913.3" y="68.5" text-anchor="middle" dominant-baseline="middle" font-size="8.5" fill="#424242" pointer-events="none">111</text>
  <rect x="935.312" y="29" width="14.688" height="72" fill="#C8C8C8" stroke="white" stroke-width="0.5" rx="1"/>
  <text x="942.7" y="68.5" text-anchor="middle" dominant-baseline="middle" font-size="8.5" fill="#424242" pointer-events="none">1</text>
  <text x="953" y="69.0" font-size="8" fill="#888888" font-family="Helvetica Neue,Arial">[31:0]</text>
  <rect x="10" y="108" width="940.00" height="74" fill="none" stroke="#555555" stroke-width="0.8"/>
  <rect x="10.000" y="109" width="73.438" height="72" fill="#E0E0E0" stroke="white" stroke-width="0.5" rx="1"/>
  <rect x="83.438" y="109" width="29.375" height="72" fill="#E0E0E0" stroke="white" stroke-width="0.5" rx="1"/>
  <rect x="112.812" y="109" width="73.438" height="72" fill="#5BBFAA" stroke="white" stroke-width="0.5" rx="1"/>
  <text x="149.5" y="148.5" text-anchor="middle" dominant-baseline="middle" font-size="8.5" fill="#1A3A32" pointer-events="none">SrcR[4:0</text>
  <rect x="186.250" y="109" width="73.438" height="72" fill="#6EC9D8" stroke="white" stroke-width="0.5" rx="1"/>
  <text x="223.0" y="148.5" text-anchor="middle" dominant-baseline="middle" font-size="8.5" fill="#1A3F47" pointer-events="none">SrcL[4:0</text>
  <rect x="259.688" y="109" width="14.688" height="72" fill="#C8C8C8" stroke="white" stroke-width="0.5" rx="1"/>
  <text x="267.0" y="148.5" text-anchor="middle" dominant-baseline="middle" font-size="8.5" fill="#424242" pointer-events="none">1</text>
  <rect x="274.375" y="109" width="14.688" height="72" fill="#C8C8C8" stroke="white" stroke-width="0.5" rx="1"/>
  <text x="281.7" y="148.5" text-anchor="middle" dominant-baseline="middle" font-size="8.5" fill="#424242" pointer-events="none">1</text>
  <rect x="289.062" y="109" width="14.688" height="72" fill="#C8C8C8" stroke="white" stroke-width="0.5" rx="1"/>
  <text x="296.4" y="148.5" text-anchor="middle" dominant-baseline="middle" font-size="8.5" fill="#424242" pointer-events="none">1</text>
  <rect x="303.750" y="109" width="73.438" height="72" fill="#82C77A" stroke="white" stroke-width="0.5" rx="1"/>
  <text x="340.5" y="148.5" text-anchor="middle" dominant-baseline="middle" font-size="8.5" fill="#1A4A1C" pointer-events="none">RegDst[4</text>
  <rect x="377.188" y="109" width="44.062" height="72" fill="#C8C8C8" stroke="white" stroke-width="0.5" rx="1"/>
  <text x="399.2" y="148.5" text-anchor="middle" dominant-baseline="middle" font-size="8.5" fill="#424242" pointer-events="none">101</text>
  <rect x="421.250" y="109" width="44.062" height="72" fill="#C8C8C8" stroke="white" stroke-width="0.5" rx="1"/>
  <text x="443.3" y="148.5" text-anchor="middle" dominant-baseline="middle" font-size="8.5" fill="#424242" pointer-events="none">101</text>
  <rect x="465.312" y="109" width="14.688" height="72" fill="#C8C8C8" stroke="white" stroke-width="0.5" rx="1"/>
  <text x="472.7" y="148.5" text-anchor="middle" dominant-baseline="middle" font-size="8.5" fill="#424242" pointer-events="none">1</text>
  <text x="953" y="149.0" font-size="8" fill="#888888" font-family="Helvetica Neue,Arial">[31:0]</text>
  <text x="10" y="123" font-size="9" fill="#AAAAAA" font-family="Helvetica Neue,Arial,sans-serif">64-bit encoding</text>
</svg>