<svg xmlns="http://www.w3.org/2000/svg" viewBox="0 0 548 68" width="548" height="68">
  <defs><style>text{font-family:"Courier New",monospace}</style></defs>
  <text x="10" y="17" font-family="Helvetica Neue,Arial" font-weight="bold" font-size="14" fill="#1A1A2E">LWU.PCR</text>
  <text x="18.25" y="9" text-anchor="middle" font-size="8" fill="#888888">31</text>
  <text x="67.75" y="9" text-anchor="middle" font-size="8" fill="#888888">28</text>
  <text x="133.75" y="9" text-anchor="middle" font-size="8" fill="#888888">24</text>
  <text x="199.75" y="9" text-anchor="middle" font-size="8" fill="#888888">20</text>
  <text x="265.75" y="9" text-anchor="middle" font-size="8" fill="#888888">16</text>
  <text x="331.75" y="9" text-anchor="middle" font-size="8" fill="#888888">12</text>
  <text x="397.75" y="9" text-anchor="middle" font-size="8" fill="#888888">8</text>
  <text x="463.75" y="9" text-anchor="middle" font-size="8" fill="#888888">4</text>
  <text x="529.75" y="9" text-anchor="middle" font-size="8" fill="#888888">0</text>
  <rect x="10" y="28" width="528.00" height="14" fill="none" stroke="#555555" stroke-width="0.8"/>
  <rect x="10.000" y="29" width="280.500" height="12" fill="#F4A261" stroke="white" stroke-width="0.5" rx="1"/>
  <text x="150.2" y="38.5" text-anchor="middle" dominant-baseline="middle" font-size="8.5" fill="#3A1A00" pointer-events="none">simm17</text>
  <rect x="290.500" y="29" width="49.500" height="12" fill="#C8C8C8" stroke="white" stroke-width="0.5" rx="1"/>
  <text x="315.2" y="38.5" text-anchor="middle" dominant-baseline="middle" font-size="8.5" fill="#424242" pointer-events="none">110</text>
  <rect x="340.000" y="29" width="82.500" height="12" fill="#82C77A" stroke="white" stroke-width="0.5" rx="1"/>
  <text x="381.2" y="38.5" text-anchor="middle" dominant-baseline="middle" font-size="8.5" fill="#1A4A1C" pointer-events="none">rd</text>
  <rect x="422.500" y="29" width="49.500" height="12" fill="#C8C8C8" stroke="white" stroke-width="0.5" rx="1"/>
  <text x="447.2" y="38.5" text-anchor="middle" dominant-baseline="middle" font-size="8.5" fill="#424242" pointer-events="none">011</text>
  <rect x="472.000" y="29" width="49.500" height="12" fill="#C8C8C8" stroke="white" stroke-width="0.5" rx="1"/>
  <text x="496.8" y="38.5" text-anchor="middle" dominant-baseline="middle" font-size="8.5" fill="#424242" pointer-events="none">100</text>
  <rect x="521.500" y="29" width="16.500" height="12" fill="#C8C8C8" stroke="white" stroke-width="0.5" rx="1"/>
  <text x="529.8" y="38.5" text-anchor="middle" dominant-baseline="middle" font-size="8.5" fill="#424242" pointer-events="none">1</text>
  <text x="10" y="63" font-size="9" fill="#AAAAAA" font-family="Helvetica Neue,Arial,sans-serif">32-bit encoding</text>
</svg>