<svg xmlns="http://www.w3.org/2000/svg" viewBox="0 0 772 68" width="772" height="68">
  <defs><style>text{font-family:"Courier New",monospace}</style></defs>
  <text x="10" y="17" font-family="Helvetica Neue,Arial" font-weight="bold" font-size="14" fill="#1A1A2E">HL.LWUI.UPR</text>
  <text x="17.83" y="9" text-anchor="middle" font-size="8" fill="#888888">47</text>
  <text x="64.83" y="9" text-anchor="middle" font-size="8" fill="#888888">44</text>
  <text x="127.50" y="9" text-anchor="middle" font-size="8" fill="#888888">40</text>
  <text x="190.17" y="9" text-anchor="middle" font-size="8" fill="#888888">36</text>
  <text x="252.83" y="9" text-anchor="middle" font-size="8" fill="#888888">32</text>
  <text x="315.50" y="9" text-anchor="middle" font-size="8" fill="#888888">28</text>
  <text x="378.17" y="9" text-anchor="middle" font-size="8" fill="#888888">24</text>
  <text x="440.83" y="9" text-anchor="middle" font-size="8" fill="#888888">20</text>
  <text x="503.50" y="9" text-anchor="middle" font-size="8" fill="#888888">16</text>
  <text x="566.17" y="9" text-anchor="middle" font-size="8" fill="#888888">12</text>
  <text x="628.83" y="9" text-anchor="middle" font-size="8" fill="#888888">8</text>
  <text x="691.50" y="9" text-anchor="middle" font-size="8" fill="#888888">4</text>
  <text x="754.17" y="9" text-anchor="middle" font-size="8" fill="#888888">0</text>
  <rect x="10" y="28" width="752.00" height="14" fill="none" stroke="#555555" stroke-width="0.8"/>
  <rect x="10.000" y="29" width="188.000" height="12" fill="#F4A261" stroke="white" stroke-width="0.5" rx="1"/>
  <text x="104.0" y="38.5" text-anchor="middle" dominant-baseline="middle" font-size="8.5" fill="#3A1A00" pointer-events="none">simm17[1</text>
  <rect x="198.000" y="29" width="78.333" height="12" fill="#6EC9D8" stroke="white" stroke-width="0.5" rx="1"/>
  <text x="237.2" y="38.5" text-anchor="middle" dominant-baseline="middle" font-size="8.5" fill="#1A3F47" pointer-events="none">rs1</text>
  <rect x="276.333" y="29" width="47.000" height="12" fill="#C8C8C8" stroke="white" stroke-width="0.5" rx="1"/>
  <text x="299.8" y="38.5" text-anchor="middle" dominant-baseline="middle" font-size="8.5" fill="#424242" pointer-events="none">110</text>
  <rect x="323.333" y="29" width="78.333" height="12" fill="#82C77A" stroke="white" stroke-width="0.5" rx="1"/>
  <text x="362.5" y="38.5" text-anchor="middle" dominant-baseline="middle" font-size="8.5" fill="#1A4A1C" pointer-events="none">RegDst0</text>
  <rect x="401.667" y="29" width="47.000" height="12" fill="#C8C8C8" stroke="white" stroke-width="0.5" rx="1"/>
  <text x="425.2" y="38.5" text-anchor="middle" dominant-baseline="middle" font-size="8.5" fill="#424242" pointer-events="none">010</text>
  <rect x="448.667" y="29" width="47.000" height="12" fill="#C8C8C8" stroke="white" stroke-width="0.5" rx="1"/>
  <text x="472.2" y="38.5" text-anchor="middle" dominant-baseline="middle" font-size="8.5" fill="#424242" pointer-events="none">100</text>
  <rect x="495.667" y="29" width="15.667" height="12" fill="#C8C8C8" stroke="white" stroke-width="0.5" rx="1"/>
  <text x="503.5" y="38.5" text-anchor="middle" dominant-baseline="middle" font-size="8.5" fill="#424242" pointer-events="none">1</text>
  <rect x="511.333" y="29" width="78.333" height="12" fill="#82C77A" stroke="white" stroke-width="0.5" rx="1"/>
  <text x="550.5" y="38.5" text-anchor="middle" dominant-baseline="middle" font-size="8.5" fill="#1A4A1C" pointer-events="none">RegDst1</text>
  <rect x="589.667" y="29" width="78.333" height="12" fill="#F4A261" stroke="white" stroke-width="0.5" rx="1"/>
  <text x="628.8" y="38.5" text-anchor="middle" dominant-baseline="middle" font-size="8.5" fill="#3A1A00" pointer-events="none">simm17[1</text>
  <rect x="668.000" y="29" width="31.333" height="12" fill="#C8C8C8" stroke="white" stroke-width="0.5" rx="1"/>
  <text x="683.7" y="38.5" text-anchor="middle" dominant-baseline="middle" font-size="8.5" fill="#424242" pointer-events="none">10</text>
  <rect x="699.333" y="29" width="47.000" height="12" fill="#C8C8C8" stroke="white" stroke-width="0.5" rx="1"/>
  <text x="722.8" y="38.5" text-anchor="middle" dominant-baseline="middle" font-size="8.5" fill="#424242" pointer-events="none">111</text>
  <rect x="746.333" y="29" width="15.667" height="12" fill="#E0E0E0" stroke="white" stroke-width="0.5" rx="1"/>
  <text x="10" y="63" font-size="9" fill="#AAAAAA" font-family="Helvetica Neue,Arial,sans-serif">48-bit encoding</text>
</svg>