<svg xmlns="http://www.w3.org/2000/svg" viewBox="0 0 548 68" width="548" height="68">
  <defs><style>text{font-family:"Courier New",monospace}</style></defs>
  <text x="10" y="17" font-family="Helvetica Neue,Arial" font-weight="bold" font-size="14" fill="#1A1A2E">SD.OR</text>
  <text x="18.25" y="9" text-anchor="middle" font-size="8" fill="#888888">31</text>
  <text x="67.75" y="9" text-anchor="middle" font-size="8" fill="#888888">28</text>
  <text x="133.75" y="9" text-anchor="middle" font-size="8" fill="#888888">24</text>
  <text x="199.75" y="9" text-anchor="middle" font-size="8" fill="#888888">20</text>
  <text x="265.75" y="9" text-anchor="middle" font-size="8" fill="#888888">16</text>
  <text x="331.75" y="9" text-anchor="middle" font-size="8" fill="#888888">12</text>
  <text x="397.75" y="9" text-anchor="middle" font-size="8" fill="#888888">8</text>
  <text x="463.75" y="9" text-anchor="middle" font-size="8" fill="#888888">4</text>
  <text x="529.75" y="9" text-anchor="middle" font-size="8" fill="#888888">0</text>
  <rect x="10" y="28" width="528.00" height="14" fill="none" stroke="#555555" stroke-width="0.8"/>
  <rect x="10.000" y="29" width="66.000" height="12" fill="#C8C8C8" stroke="white" stroke-width="0.5" rx="1"/>
  <text x="43.0" y="38.5" text-anchor="middle" dominant-baseline="middle" font-size="8.5" fill="#424242" pointer-events="none">0010</text>
  <rect x="76.000" y="29" width="16.500" height="12" fill="#D0D0D0" stroke="white" stroke-width="0.5" rx="1"/>
  <text x="84.2" y="38.5" text-anchor="middle" dominant-baseline="middle" font-size="8.5" fill="#333333" pointer-events="none">f…</text>
  <rect x="92.500" y="29" width="16.500" height="12" fill="#E0E0E0" stroke="white" stroke-width="0.5" rx="1"/>
  <rect x="109.000" y="29" width="16.500" height="12" fill="#B39DDB" stroke="white" stroke-width="0.5" rx="1"/>
  <text x="117.2" y="38.5" text-anchor="middle" dominant-baseline="middle" font-size="8.5" fill="#2A1A4A" pointer-events="none">rl</text>
  <rect x="125.500" y="29" width="82.500" height="12" fill="#5BBFAA" stroke="white" stroke-width="0.5" rx="1"/>
  <text x="166.8" y="38.5" text-anchor="middle" dominant-baseline="middle" font-size="8.5" fill="#1A3A32" pointer-events="none">rs2</text>
  <rect x="208.000" y="29" width="82.500" height="12" fill="#6EC9D8" stroke="white" stroke-width="0.5" rx="1"/>
  <text x="249.2" y="38.5" text-anchor="middle" dominant-baseline="middle" font-size="8.5" fill="#1A3F47" pointer-events="none">rs1</text>
  <rect x="290.500" y="29" width="49.500" height="12" fill="#C8C8C8" stroke="white" stroke-width="0.5" rx="1"/>
  <text x="315.2" y="38.5" text-anchor="middle" dominant-baseline="middle" font-size="8.5" fill="#424242" pointer-events="none">101</text>
  <rect x="340.000" y="29" width="82.500" height="12" fill="#E0E0E0" stroke="white" stroke-width="0.5" rx="1"/>
  <rect x="422.500" y="29" width="49.500" height="12" fill="#E0E0E0" stroke="white" stroke-width="0.5" rx="1"/>
  <rect x="472.000" y="29" width="49.500" height="12" fill="#C8C8C8" stroke="white" stroke-width="0.5" rx="1"/>
  <text x="496.8" y="38.5" text-anchor="middle" dominant-baseline="middle" font-size="8.5" fill="#424242" pointer-events="none">101</text>
  <rect x="521.500" y="29" width="16.500" height="12" fill="#C8C8C8" stroke="white" stroke-width="0.5" rx="1"/>
  <text x="529.8" y="38.5" text-anchor="middle" dominant-baseline="middle" font-size="8.5" fill="#424242" pointer-events="none">1</text>
  <text x="10" y="63" font-size="9" fill="#AAAAAA" font-family="Helvetica Neue,Arial,sans-serif">32-bit encoding</text>
</svg>