<?xml version="1.0" encoding="UTF-8"?>
<svg xmlns="http://www.w3.org/2000/svg" width="600" height="300" viewBox="0 0 600 300">
  <style>
    text { font-family: "Helvetica Neue", Arial, sans-serif; font-size: 14px; }
    .title { font-size: 18px; font-weight: bold; fill: #333; }
    .label { font-size: 12px; fill: #555; }
  </style>

  <text x="10" y="25" class="title">Multi-Dimensional Tile Mapping</text>
  <text x="10" y="45" class="label">Complex tensor to tile register address translation</text>

  <!-- Tensor representation -->
  <g transform="translate(20, 60)">
    <text x="0" y="0" class="label" font-weight="bold">Tensor Element</text>

    <rect x="0" y="10" width="80" height="40" fill="#E8E8E8" rx="2" stroke="#333" stroke-width="1"/>
    <text x="40" y="35" text-anchor="middle" class="label">[b,h,w,c]</text>

    <!-- Grid showing multiple tiles -->
    <rect x="0" y="60" width="200" height="140" fill="#F5F5F5" rx="3" stroke="#999" stroke-width="1"/>

    <text x="100" y="80" text-anchor="middle" class="label">Tile Grid</text>

    <!-- Tile blocks -->
    <rect x="20" y="95" width="40" height="30" fill="#B3D9FF" rx="2" stroke="#333" stroke-width="1"/>
    <text x="40" y="115" text-anchor="middle" class="label" font-size="9">T0</text>

    <rect x="70" y="95" width="40" height="30" fill="#B3D9FF" rx="2" stroke="#333" stroke-width="1"/>
    <text x="90" y="115" text-anchor="middle" class="label" font-size="9">T1</text>

    <rect x="120" y="95" width="40" height="30" fill="#B3D9FF" rx="2" stroke="#333" stroke-width="1"/>
    <text x="140" y="115" text-anchor="middle" class="label" font-size="9">T2</text>

    <rect x="20" y="135" width="40" height="30" fill="#B3D9FF" rx="2" stroke="#333" stroke-width="1"/>
    <text x="40" y="155" text-anchor="middle" class="label" font-size="9">T3</text>

    <rect x="70" y="135" width="40" height="30" fill="#B3D9FF" rx="2" stroke="#333" stroke-width="1"/>
    <text x="90" y="155" text-anchor="middle" class="label" font-size="9">T4</text>
  </g>

  <!-- Arrow -->
  <path d="M 250,130 L 290,130" stroke="#333" stroke-width="2" fill="none"/>
  <polygon points="295,130 285,125 285,135" fill="#333"/>

  <!-- Tile register mapping -->
  <g transform="translate(310, 60)">
    <text x="0" y="0" class="label" font-weight="bold">Tile Register Address</text>

    <!-- Address formula -->
    <rect x="0" y="10" width="260" height="100" fill="#FFE4B5" rx="3" stroke="#333" stroke-width="1"/>
    <text x="130" y="40" text-anchor="middle" font-family="Courier New, monospace" font-size="13">
      addr = ((b*tH + h)*tW + w)*tC + c
    </text>
    <text x="130" y="70" text-anchor="middle" class="label" font-size="11">where tile size = tH × tW × tC</text>
    <text x="130" y="95" text-anchor="middle" class="label">4D → 1D linearization</text>

    <!-- Register file representation -->
    <rect x="0" y="120" width="260" height="80" fill="#F5F5F5" rx="3" stroke="#999" stroke-width="1"/>
    <text x="130" y="145" text-anchor="middle" class="label">Register File</text>
    <rect x="20" y="155" width="220" height="35" fill="#E8E8E8" rx="2"/>
    <text x="130" y="178" text-anchor="middle" class="label">R[0..N-1]</text>
  </g>
</svg>