<?xml version="1.0" encoding="UTF-8"?>
<svg xmlns="http://www.w3.org/2000/svg" width="500" height="200" viewBox="0 0 500 200">
  <style>
    text { font-family: "Helvetica Neue", Arial, sans-serif; font-size: 14px; }
    .title { font-size: 18px; font-weight: bold; fill: #333; }
    .label { font-size: 12px; fill: #555; }
  </style>

  <text x="10" y="25" class="title">Encoding Layer 1: Width Determination</text>

  <g transform="translate(10, 50)">
    <!-- Width bit indicator -->
    <rect x="0" y="0" width="100" height="40" fill="#9370DB" rx="3" stroke="#333" stroke-width="1"/>
    <text x="50" y="25" text-anchor="middle" fill="white" font-weight="bold">W bit[0]</text>

    <!-- Arrow -->
    <path d="M 110,20 L 150,20" stroke="#333" stroke-width="2" fill="none"/>
    <polygon points="155,20 145,15 145,25" fill="#333"/>

    <!-- Decision diamond -->
    <polygon points="200,20 240,50 200,80 160,50" fill="#FFE4B5" stroke="#333" stroke-width="1"/>
    <text x="200" y="48" text-anchor="middle" class="label">W=0</text>
    <text x="200" y="62" text-anchor="middle" class="label">W=1</text>

    <!-- 16-bit path -->
    <path d="M 160,50 L 120,50" stroke="#333" stroke-width="1" fill="none"/>
    <path d="M 120,50 L 120,110" stroke="#333" stroke-width="1" fill="none"/>
    <path d="M 120,110 L 250,110" stroke="#333" stroke-width="1" fill="none"/>
    <rect x="260" y="90" width="100" height="40" fill="#FF6B6B" rx="3" stroke="#333" stroke-width="1"/>
    <text x="310" y="115" text-anchor="middle" fill="white" font-weight="bold">16-bit</text>
    <text x="310" y="150" text-anchor="middle" class="label">C16 Format</text>

    <!-- 32-bit path -->
    <path d="M 240,50 L 280,50" stroke="#333" stroke-width="1" fill="none"/>
    <path d="M 280,50 L 280,110" stroke="#333" stroke-width="1" fill="none"/>
    <path d="M 280,110 L 360,110" stroke="#333" stroke-width="1" fill="none"/>
    <rect x="370" y="90" width="100" height="40" fill="#4ECDC4" rx="3" stroke="#333" stroke-width="1"/>
    <text x="420" y="115" text-anchor="middle" fill="white" font-weight="bold">32-bit</text>
    <text x="420" y="150" text-anchor="middle" class="label">LX32 Format</text>
  </g>
</svg>