<?xml version="1.0" encoding="UTF-8"?>
<svg xmlns="http://www.w3.org/2000/svg" width="900" height="300" viewBox="0 0 900 300">
  <style>
    text { font-family: "Helvetica Neue", Arial, sans-serif; font-size: 14px; }
    .title { font-size: 18px; font-weight: bold; fill: #333; }
    .label { font-size: 12px; fill: #555; }
    .bit-label { font-size: 11px; fill: #333; }
  </style>

  <text x="10" y="25" class="title">C16 Encoding Space (16-bit)</text>
  <text x="10" y="45" class="label">3 major opcode bits [15:13] divide space into 8 slots</text>

  <!-- Bit positions at top -->
  <g transform="translate(50, 60)">
    <text x="0" y="0" class="bit-label">15</text>
    <text x="135" y="0" class="bit-label">13</text>
    <text x="180" y="0" class="bit-label">12</text>
    <text x="345" y="0" class="bit-label">0</text>

    <!-- Opcode field highlight -->
    <rect x="0" y="10" width="150" height="60" fill="#FFE4B5" rx="3" stroke="#333" stroke-width="1" stroke-dasharray="5,3"/>
    <text x="75" y="45" text-anchor="middle" class="label" font-weight="bold">opcode</text>
    <text x="75" y="60" text-anchor="middle" class="bit-label">[15:13]</text>

    <!-- Remaining bits -->
    <rect x="150" y="10" width="180" height="60" fill="#E8E8E8" rx="3" stroke="#333" stroke-width="1"/>
    <text x="240" y="45" text-anchor="middle" class="label">operands/imm</text>
    <text x="240" y="60" text-anchor="middle" class="bit-label">[12:0]</text>
  </g>

  <!-- 8 opcode slots -->
  <g transform="translate(50, 100)">
    <text x="0" y="15" class="label" font-weight="bold">Opcode Slots:</text>

    <rect x="0" y="25" width="100" height="60" fill="#FF6B6B" rx="3" stroke="#333" stroke-width="1"/>
    <text x="50" y="55" text-anchor="middle" class="label" fill="white">000</text>
    <text x="50" y="100" text-anchor="middle" class="bit-label">Slot 0</text>

    <rect x="110" y="25" width="100" height="60" fill="#FF6B6B" rx="3" stroke="#333" stroke-width="1"/>
    <text x="160" y="55" text-anchor="middle" class="label" fill="white">001</text>
    <text x="160" y="100" text-anchor="middle" class="bit-label">Slot 1</text>

    <rect x="220" y="25" width="100" height="60" fill="#FF6B6B" rx="3" stroke="#333" stroke-width="1"/>
    <text x="270" y="55" text-anchor="middle" class="label" fill="white">010</text>
    <text x="270" y="100" text-anchor="middle" class="bit-label">Slot 2</text>

    <rect x="330" y="25" width="100" height="60" fill="#FF6B6B" rx="3" stroke="#333" stroke-width="1"/>
    <text x="380" y="55" text-anchor="middle" class="label" fill="white">011</text>
    <text x="380" y="100" text-anchor="middle" class="bit-label">Slot 3</text>

    <rect x="440" y="25" width="100" height="60" fill="#FF6B6B" rx="3" stroke="#333" stroke-width="1"/>
    <text x="490" y="55" text-anchor="middle" class="label" fill="white">100</text>
    <text x="490" y="100" text-anchor="middle" class="bit-label">Slot 4</text>

    <rect x="550" y="25" width="100" height="60" fill="#FF6B6B" rx="3" stroke="#333" stroke-width="1"/>
    <text x="600" y="55" text-anchor="middle" class="label" fill="white">101</text>
    <text x="600" y="100" text-anchor="middle" class="bit-label">Slot 5</text>

    <rect x="660" y="25" width="100" height="60" fill="#FF6B6B" rx="3" stroke="#333" stroke-width="1"/>
    <text x="710" y="55" text-anchor="middle" class="label" fill="white">110</text>
    <text x="710" y="100" text-anchor="middle" class="bit-label">Slot 6</text>

    <rect x="770" y="25" width="100" height="60" fill="#FF6B6B" rx="3" stroke="#333" stroke-width="1"/>
    <text x="820" y="55" text-anchor="middle" class="label" fill="white">111</text>
    <text x="820" y="100" text-anchor="middle" class="bit-label">Slot 7</text>
  </g>
</svg>