<svg xmlns="http://www.w3.org/2000/svg" width="640" height="320" viewBox="0 0 640 320">
  <g transform="translate(0.5,0.5)" text-anchor="middle" font-size="14" font-family="sans-serif" font-weight="normal">
    <g transform="translate(4,261)">
      <g stroke="black" stroke-width="1" stroke-linecap="round">
        <line x2="631"/>
        <line y2="55"/>
        <line x2="631" y1="55" y2="55"/>
        <line x1="631" x2="631" y2="55"/>
        <line x1="608" x2="608" y2="6"/>
        <line x1="608" x2="608" y1="55" y2="49"/>
        <line x1="584" x2="584" y2="6"/>
        <line x1="584" x2="584" y1="55" y2="49"/>
        <line x1="561" x2="561" y2="6"/>
        <line x1="561" x2="561" y1="55" y2="49"/>
        <line x1="538" x2="538" y2="55"/>
        <line x1="514" x2="514" y2="55"/>
        <line x1="491" x2="491" y2="6"/>
        <line x1="491" x2="491" y1="55" y2="49"/>
        <line x1="467" x2="467" y2="55"/>
        <line x1="444" x2="444" y2="6"/>
        <line x1="444" x2="444" y1="55" y2="49"/>
        <line x1="421" x2="421" y2="6"/>
        <line x1="421" x2="421" y1="55" y2="49"/>
        <line x1="397" x2="397" y2="6"/>
        <line x1="397" x2="397" y1="55" y2="49"/>
        <line x1="374" x2="374" y2="55"/>
        <line x1="351" x2="351" y2="6"/>
        <line x1="351" x2="351" y1="55" y2="49"/>
        <line x1="327" x2="327" y2="6"/>
        <line x1="327" x2="327" y1="55" y2="49"/>
        <line x1="304" x2="304" y2="6"/>
        <line x1="304" x2="304" y1="55" y2="49"/>
        <line x1="280" x2="280" y2="6"/>
        <line x1="280" x2="280" y1="55" y2="49"/>
        <line x1="257" x2="257" y2="55"/>
        <line x1="234" x2="234" y2="6"/>
        <line x1="234" x2="234" y1="55" y2="49"/>
        <line x1="210" x2="210" y2="6"/>
        <line x1="210" x2="210" y1="55" y2="49"/>
        <line x1="187" x2="187" y2="55"/>
        <line x1="164" x2="164" y2="6"/>
        <line x1="164" x2="164" y1="55" y2="49"/>
        <line x1="140" x2="140" y2="6"/>
        <line x1="140" x2="140" y1="55" y2="49"/>
        <line x1="117" x2="117" y2="6"/>
        <line x1="117" x2="117" y1="55" y2="49"/>
        <line x1="93" x2="93" y2="6"/>
        <line x1="93" x2="93" y1="55" y2="49"/>
        <line x1="70" x2="70" y2="55"/>
        <line x1="47" x2="47" y2="6"/>
        <line x1="47" x2="47" y1="55" y2="49"/>
        <line x1="23" x2="23" y2="6"/>
        <line x1="23" x2="23" y1="55" y2="49"/>
      </g>
      <g>
        <g>
          <rect x="538" width="93" height="55" field="4" style="fill-opacity:0.1"/>
          <rect x="514" width="23" height="55" field="1" style="fill-opacity:0.1"/>
          <rect x="467" width="47" height="55" field="3" style="fill-opacity:0.1;fill:#ff0000"/>
          <rect x="374" width="93" height="55" field="15" style="fill-opacity:0.1;fill:#ffbf00"/>
          <rect x="257" width="117" height="55" field="0" style="fill-opacity:0.1;fill:#aaff00"/>
          <rect x="187" width="70" height="55" field="0" style="fill-opacity:0.1;fill:#00ffd5"/>
          <rect x="70" width="117" height="55" field="SrcL" style="fill-opacity:0.1"/>
          <rect width="70" height="55" field="0" style="fill-opacity:0.1"/>
        </g>
        <g transform="translate(12,-11)">
          <g transform="translate(608)">
            <text y="6">0</text>
          </g>
          <g transform="translate(538)">
            <text y="6">3</text>
          </g>
          <g transform="translate(514)">
            <text y="6">4</text>
          </g>
          <g transform="translate(491)">
            <text y="6">5</text>
          </g>
          <g transform="translate(467)">
            <text y="6">6</text>
          </g>
          <g transform="translate(444)">
            <text y="6">7</text>
          </g>
          <g transform="translate(374)">
            <text y="6">10</text>
          </g>
          <g transform="translate(351)">
            <text y="6">11</text>
          </g>
          <g transform="translate(257)">
            <text y="6">15</text>
          </g>
          <g transform="translate(234)">
            <text y="6">16</text>
          </g>
          <g transform="translate(187)">
            <text y="6">18</text>
          </g>
          <g transform="translate(164)">
            <text y="6">19</text>
          </g>
          <g transform="translate(70)">
            <text y="6">23</text>
          </g>
          <g transform="translate(47)">
            <text y="6">24</text>
          </g>
          <g transform="translate(0)">
            <text y="6">26</text>
          </g>
        </g>
        <g transform="translate(12,27)">
          <g>
            <g transform="translate(608)">
              <text y="6">0</text>
            </g>
            <g transform="translate(584)">
              <text y="6">0</text>
            </g>
            <g transform="translate(561)">
              <text y="6">1</text>
            </g>
            <g transform="translate(538)">
              <text y="6">0</text>
            </g>
          </g>
          <g>
            <g transform="translate(514)">
              <text y="6">1</text>
            </g>
          </g>
          <g>
            <g transform="translate(491)">
              <text y="6">1</text>
            </g>
            <g transform="translate(467)">
              <text y="6">1</text>
            </g>
          </g>
          <g>
            <g transform="translate(444)">
              <text y="6">1</text>
            </g>
            <g transform="translate(421)">
              <text y="6">1</text>
            </g>
            <g transform="translate(397)">
              <text y="6">1</text>
            </g>
            <g transform="translate(374)">
              <text y="6">1</text>
            </g>
          </g>
          <g>
            <g transform="translate(351)">
              <text y="6">0</text>
            </g>
            <g transform="translate(327)">
              <text y="6">0</text>
            </g>
            <g transform="translate(304)">
              <text y="6">0</text>
            </g>
            <g transform="translate(280)">
              <text y="6">0</text>
            </g>
            <g transform="translate(257)">
              <text y="6">0</text>
            </g>
          </g>
          <g>
            <g transform="translate(234)">
              <text y="6">0</text>
            </g>
            <g transform="translate(210)">
              <text y="6">0</text>
            </g>
            <g transform="translate(187)">
              <text y="6">0</text>
            </g>
          </g>
          <g transform="translate(117)">
            <text y="6">
              <tspan>SrcL</tspan>
            </text>
          </g>
          <g>
            <g transform="translate(70)">
              <text y="6">0</text>
            </g>
            <g transform="translate(47)">
              <text y="6">0</text>
            </g>
            <g transform="translate(23)">
              <text y="6">0</text>
            </g>
            <g transform="translate(0)">
              <text y="6">0</text>
            </g>
            <g transform="translate(-23)">
              <text y="6">0</text>
            </g>
          </g>
        </g>
        <g transform="translate(12,63)"/>
      </g>
    </g>
    <g transform="translate(4,181)">
      <g stroke="black" stroke-width="1" stroke-linecap="round">
        <line x2="631"/>
        <line y2="55"/>
        <line x2="631" y1="55" y2="55"/>
        <line x1="631" x2="631" y2="55"/>
        <line x1="608" x2="608" y2="6"/>
        <line x1="608" x2="608" y1="55" y2="49"/>
        <line x1="584" x2="584" y2="55"/>
        <line x1="561" x2="561" y2="6"/>
        <line x1="561" x2="561" y1="55" y2="49"/>
        <line x1="538" x2="538" y2="55"/>
        <line x1="514" x2="514" y2="6"/>
        <line x1="514" x2="514" y1="55" y2="49"/>
        <line x1="491" x2="491" y2="6"/>
        <line x1="491" x2="491" y1="55" y2="49"/>
        <line x1="467" x2="467" y2="6"/>
        <line x1="467" x2="467" y1="55" y2="49"/>
        <line x1="444" x2="444" y2="6"/>
        <line x1="444" x2="444" y1="55" y2="49"/>
        <line x1="421" x2="421" y2="55"/>
        <line x1="397" x2="397" y2="6"/>
        <line x1="397" x2="397" y1="55" y2="49"/>
        <line x1="374" x2="374" y2="6"/>
        <line x1="374" x2="374" y1="55" y2="49"/>
        <line x1="351" x2="351" y2="6"/>
        <line x1="351" x2="351" y1="55" y2="49"/>
        <line x1="327" x2="327" y2="55"/>
        <line x1="304" x2="304" y2="55"/>
        <line x1="280" x2="280" y2="6"/>
        <line x1="280" x2="280" y1="55" y2="49"/>
        <line x1="257" x2="257" y2="55"/>
        <line x1="234" x2="234" y2="6"/>
        <line x1="234" x2="234" y1="55" y2="49"/>
        <line x1="210" x2="210" y2="6"/>
        <line x1="210" x2="210" y1="55" y2="49"/>
        <line x1="187" x2="187" y2="6"/>
        <line x1="187" x2="187" y1="55" y2="49"/>
        <line x1="164" x2="164" y2="55"/>
        <line x1="140" x2="140" y2="6"/>
        <line x1="140" x2="140" y1="55" y2="49"/>
        <line x1="117" x2="117" y2="6"/>
        <line x1="117" x2="117" y1="55" y2="49"/>
        <line x1="93" x2="93" y2="6"/>
        <line x1="93" x2="93" y1="55" y2="49"/>
        <line x1="70" x2="70" y2="6"/>
        <line x1="70" x2="70" y1="55" y2="49"/>
        <line x1="47" x2="47" y2="55"/>
        <line x1="23" x2="23" y2="6"/>
        <line x1="23" x2="23" y1="55" y2="49"/>
      </g>
      <g>
        <g>
          <rect x="584" width="47" height="55" field="0" style="fill-opacity:0.1"/>
          <rect x="538" width="47" height="55" field="0" style="fill-opacity:0.1"/>
          <rect x="327" width="93" height="55" field="4" style="fill-opacity:0.1"/>
          <rect x="304" width="23" height="55" field="1" style="fill-opacity:0.1"/>
          <rect x="257" width="47" height="55" field="3" style="fill-opacity:0.1;fill:#ff0000"/>
          <rect x="164" width="93" height="55" field="15" style="fill-opacity:0.1;fill:#ffbf00"/>
          <rect x="47" width="117" height="55" field="0" style="fill-opacity:0.1;fill:#aaff00"/>
          <rect width="47" height="55" field="1" style="fill-opacity:0.1;fill:#00ffd5"/>
        </g>
        <g transform="translate(12,-11)">
          <g transform="translate(608)">
            <text y="6">27</text>
          </g>
          <g transform="translate(584)">
            <text y="6">28</text>
          </g>
          <g transform="translate(561)">
            <text y="6">29</text>
          </g>
          <g transform="translate(538)">
            <text y="6">30</text>
          </g>
          <g transform="translate(514)">
            <text y="6">31</text>
          </g>
          <g transform="translate(421)">
            <text y="6">35</text>
          </g>
          <g transform="translate(397)">
            <text y="6">36</text>
          </g>
          <g transform="translate(327)">
            <text y="6">39</text>
          </g>
          <g transform="translate(304)">
            <text y="6">40</text>
          </g>
          <g transform="translate(280)">
            <text y="6">41</text>
          </g>
          <g transform="translate(257)">
            <text y="6">42</text>
          </g>
          <g transform="translate(234)">
            <text y="6">43</text>
          </g>
          <g transform="translate(164)">
            <text y="6">46</text>
          </g>
          <g transform="translate(140)">
            <text y="6">47</text>
          </g>
          <g transform="translate(47)">
            <text y="6">51</text>
          </g>
          <g transform="translate(23)">
            <text y="6">52</text>
          </g>
          <g transform="translate(0)">
            <text y="6">53</text>
          </g>
        </g>
        <g transform="translate(12,27)">
          <g>
            <g transform="translate(643)">
              <text y="6">0</text>
            </g>
            <g transform="translate(619)">
              <text y="6">0</text>
            </g>
            <g transform="translate(596)">
              <text y="6">0</text>
            </g>
            <g transform="translate(573)">
              <text y="6">0</text>
            </g>
            <g transform="translate(549)">
              <text y="6">0</text>
            </g>
          </g>
          <g>
            <g transform="translate(561)">
              <text y="6">0</text>
            </g>
            <g transform="translate(538)">
              <text y="6">0</text>
            </g>
          </g>
          <g transform="translate(467)">
            <text y="6">
              <tspan>QID</tspan>
            </text>
          </g>
          <g>
            <g transform="translate(397)">
              <text y="6">0</text>
            </g>
            <g transform="translate(374)">
              <text y="6">0</text>
            </g>
            <g transform="translate(351)">
              <text y="6">1</text>
            </g>
            <g transform="translate(327)">
              <text y="6">0</text>
            </g>
          </g>
          <g>
            <g transform="translate(304)">
              <text y="6">1</text>
            </g>
          </g>
          <g>
            <g transform="translate(280)">
              <text y="6">1</text>
            </g>
            <g transform="translate(257)">
              <text y="6">1</text>
            </g>
          </g>
          <g>
            <g transform="translate(234)">
              <text y="6">1</text>
            </g>
            <g transform="translate(210)">
              <text y="6">1</text>
            </g>
            <g transform="translate(187)">
              <text y="6">1</text>
            </g>
            <g transform="translate(164)">
              <text y="6">1</text>
            </g>
          </g>
          <g>
            <g transform="translate(140)">
              <text y="6">0</text>
            </g>
            <g transform="translate(117)">
              <text y="6">0</text>
            </g>
            <g transform="translate(93)">
              <text y="6">0</text>
            </g>
            <g transform="translate(70)">
              <text y="6">0</text>
            </g>
            <g transform="translate(47)">
              <text y="6">0</text>
            </g>
          </g>
          <g>
            <g transform="translate(35)">
              <text y="6">1</text>
            </g>
            <g transform="translate(12)">
              <text y="6">0</text>
            </g>
            <g transform="translate(-12)">
              <text y="6">0</text>
            </g>
          </g>
        </g>
        <g transform="translate(12,63)"/>
      </g>
    </g>
    <g transform="translate(4,101)">
      <g stroke="black" stroke-width="1" stroke-linecap="round">
        <line x2="631"/>
        <line y2="55"/>
        <line x2="631" y1="55" y2="55"/>
        <line x1="631" x2="631" y2="55"/>
        <line x1="608" x2="608" y2="55"/>
        <line x1="584" x2="584" y2="6"/>
        <line x1="584" x2="584" y1="55" y2="49"/>
        <line x1="561" x2="561" y2="6"/>
        <line x1="561" x2="561" y1="55" y2="49"/>
        <line x1="538" x2="538" y2="6"/>
        <line x1="538" x2="538" y1="55" y2="49"/>
        <line x1="514" x2="514" y2="6"/>
        <line x1="514" x2="514" y1="55" y2="49"/>
        <line x1="491" x2="491" y2="55"/>
        <line x1="467" x2="467" y2="6"/>
        <line x1="467" x2="467" y1="55" y2="49"/>
        <line x1="444" x2="444" y2="6"/>
        <line x1="444" x2="444" y1="55" y2="49"/>
        <line x1="421" x2="421" y2="6"/>
        <line x1="421" x2="421" y1="55" y2="49"/>
        <line x1="397" x2="397" y2="6"/>
        <line x1="397" x2="397" y1="55" y2="49"/>
        <line x1="374" x2="374" y2="55"/>
        <line x1="351" x2="351" y2="6"/>
        <line x1="351" x2="351" y1="55" y2="49"/>
        <line x1="327" x2="327" y2="55"/>
        <line x1="304" x2="304" y2="6"/>
        <line x1="304" x2="304" y1="55" y2="49"/>
        <line x1="280" x2="280" y2="6"/>
        <line x1="280" x2="280" y1="55" y2="49"/>
        <line x1="257" x2="257" y2="6"/>
        <line x1="257" x2="257" y1="55" y2="49"/>
        <line x1="234" x2="234" y2="6"/>
        <line x1="234" x2="234" y1="55" y2="49"/>
        <line x1="210" x2="210" y2="55"/>
        <line x1="187" x2="187" y2="6"/>
        <line x1="187" x2="187" y1="55" y2="49"/>
        <line x1="164" x2="164" y2="6"/>
        <line x1="164" x2="164" y1="55" y2="49"/>
        <line x1="140" x2="140" y2="6"/>
        <line x1="140" x2="140" y1="55" y2="49"/>
        <line x1="117" x2="117" y2="55"/>
        <line x1="93" x2="93" y2="55"/>
        <line x1="70" x2="70" y2="6"/>
        <line x1="70" x2="70" y1="55" y2="49"/>
        <line x1="47" x2="47" y2="55"/>
        <line x1="23" x2="23" y2="6"/>
        <line x1="23" x2="23" y1="55" y2="49"/>
      </g>
      <g>
        <g>
          <rect x="608" width="23" height="55" field="1" style="fill-opacity:0.1;fill:#00ffd5"/>
          <rect x="491" width="117" height="55" field="0" style="fill-opacity:0.1"/>
          <rect x="374" width="117" height="55" field="0" style="fill-opacity:0.1"/>
          <rect x="327" width="47" height="55" field="0" style="fill-opacity:0.1"/>
          <rect x="117" width="93" height="55" field="4" style="fill-opacity:0.1"/>
          <rect x="93" width="23" height="55" field="1" style="fill-opacity:0.1"/>
          <rect x="47" width="47" height="55" field="3" style="fill-opacity:0.1;fill:#ff0000"/>
          <rect width="47" height="55" field="15" style="fill-opacity:0.1;fill:#ffbf00"/>
        </g>
        <g transform="translate(12,-11)">
          <g transform="translate(608)">
            <text y="6">54</text>
          </g>
          <g transform="translate(584)">
            <text y="6">55</text>
          </g>
          <g transform="translate(491)">
            <text y="6">59</text>
          </g>
          <g transform="translate(467)">
            <text y="6">60</text>
          </g>
          <g transform="translate(374)">
            <text y="6">64</text>
          </g>
          <g transform="translate(351)">
            <text y="6">65</text>
          </g>
          <g transform="translate(327)">
            <text y="6">66</text>
          </g>
          <g transform="translate(304)">
            <text y="6">67</text>
          </g>
          <g transform="translate(210)">
            <text y="6">71</text>
          </g>
          <g transform="translate(187)">
            <text y="6">72</text>
          </g>
          <g transform="translate(117)">
            <text y="6">75</text>
          </g>
          <g transform="translate(93)">
            <text y="6">76</text>
          </g>
          <g transform="translate(70)">
            <text y="6">77</text>
          </g>
          <g transform="translate(47)">
            <text y="6">78</text>
          </g>
          <g transform="translate(23)">
            <text y="6">79</text>
          </g>
          <g transform="translate(0)">
            <text y="6">80</text>
          </g>
        </g>
        <g transform="translate(12,27)">
          <g>
            <g transform="translate(631)">
              <text y="6">1</text>
            </g>
            <g transform="translate(608)">
              <text y="6">0</text>
            </g>
            <g transform="translate(584)">
              <text y="6">0</text>
            </g>
          </g>
          <g>
            <g transform="translate(584)">
              <text y="6">0</text>
            </g>
            <g transform="translate(561)">
              <text y="6">0</text>
            </g>
            <g transform="translate(538)">
              <text y="6">0</text>
            </g>
            <g transform="translate(514)">
              <text y="6">0</text>
            </g>
            <g transform="translate(491)">
              <text y="6">0</text>
            </g>
          </g>
          <g>
            <g transform="translate(467)">
              <text y="6">0</text>
            </g>
            <g transform="translate(444)">
              <text y="6">0</text>
            </g>
            <g transform="translate(421)">
              <text y="6">0</text>
            </g>
            <g transform="translate(397)">
              <text y="6">0</text>
            </g>
            <g transform="translate(374)">
              <text y="6">0</text>
            </g>
          </g>
          <g>
            <g transform="translate(351)">
              <text y="6">0</text>
            </g>
            <g transform="translate(327)">
              <text y="6">0</text>
            </g>
          </g>
          <g transform="translate(257)">
            <text y="6">
              <tspan>QID</tspan>
            </text>
          </g>
          <g>
            <g transform="translate(187)">
              <text y="6">0</text>
            </g>
            <g transform="translate(164)">
              <text y="6">0</text>
            </g>
            <g transform="translate(140)">
              <text y="6">1</text>
            </g>
            <g transform="translate(117)">
              <text y="6">0</text>
            </g>
          </g>
          <g>
            <g transform="translate(93)">
              <text y="6">1</text>
            </g>
          </g>
          <g>
            <g transform="translate(70)">
              <text y="6">1</text>
            </g>
            <g transform="translate(47)">
              <text y="6">1</text>
            </g>
          </g>
          <g>
            <g transform="translate(47)">
              <text y="6">1</text>
            </g>
            <g transform="translate(23)">
              <text y="6">1</text>
            </g>
            <g transform="translate(0)">
              <text y="6">1</text>
            </g>
            <g transform="translate(-23)">
              <text y="6">1</text>
            </g>
          </g>
        </g>
        <g transform="translate(12,63)"/>
      </g>
    </g>
    <g transform="translate(4,21)">
      <g stroke="black" stroke-width="1" stroke-linecap="round">
        <line x2="631"/>
        <line y2="55"/>
        <line x2="631" y1="55" y2="55"/>
        <line x1="631" x2="631" y2="55"/>
        <line x1="608" x2="608" y2="6"/>
        <line x1="608" x2="608" y1="55" y2="49"/>
        <line x1="584" x2="584" y2="55"/>
        <line x1="561" x2="561" y2="6"/>
        <line x1="561" x2="561" y1="55" y2="49"/>
        <line x1="538" x2="538" y2="6"/>
        <line x1="538" x2="538" y1="55" y2="49"/>
        <line x1="514" x2="514" y2="6"/>
        <line x1="514" x2="514" y1="55" y2="49"/>
        <line x1="491" x2="491" y2="6"/>
        <line x1="491" x2="491" y1="55" y2="49"/>
        <line x1="467" x2="467" y2="55"/>
        <line x1="444" x2="444" y2="6"/>
        <line x1="444" x2="444" y1="55" y2="49"/>
        <line x1="421" x2="421" y2="6"/>
        <line x1="421" x2="421" y1="55" y2="49"/>
        <line x1="397" x2="397" y2="55"/>
        <line x1="374" x2="374" y2="6"/>
        <line x1="374" x2="374" y1="55" y2="49"/>
        <line x1="351" x2="351" y2="6"/>
        <line x1="351" x2="351" y1="55" y2="49"/>
        <line x1="327" x2="327" y2="6"/>
        <line x1="327" x2="327" y1="55" y2="49"/>
        <line x1="304" x2="304" y2="6"/>
        <line x1="304" x2="304" y1="55" y2="49"/>
        <line x1="280" x2="280" y2="55"/>
        <line x1="257" x2="257" y2="6"/>
        <line x1="257" x2="257" y1="55" y2="49"/>
        <line x1="234" x2="234" y2="6"/>
        <line x1="234" x2="234" y1="55" y2="49"/>
        <line x1="210" x2="210" y2="6"/>
        <line x1="210" x2="210" y1="55" y2="49"/>
        <line x1="187" x2="187" y2="6"/>
        <line x1="187" x2="187" y1="55" y2="49"/>
        <line x1="164" x2="164" y2="55"/>
        <line x1="140" x2="140" y2="6"/>
        <line x1="140" x2="140" y1="55" y2="49"/>
        <line x1="117" x2="117" y2="55"/>
        <line x1="93" x2="93" y2="6"/>
        <line x1="93" x2="93" y1="55" y2="49"/>
        <line x1="70" x2="70" y2="6"/>
        <line x1="70" x2="70" y1="55" y2="49"/>
        <line x1="47" x2="47" y2="6"/>
        <line x1="47" x2="47" y1="55" y2="49"/>
        <line x1="23" x2="23" y2="6"/>
        <line x1="23" x2="23" y1="55" y2="49"/>
      </g>
      <g>
        <g>
          <rect x="584" width="47" height="55" field="15" style="fill-opacity:0.1;fill:#ffbf00"/>
          <rect x="467" width="117" height="55" field="RegDst" style="fill-opacity:0.1;fill:#aaff00"/>
          <rect x="397" width="70" height="55" field="2" style="fill-opacity:0.1;fill:#00ffd5"/>
          <rect x="280" width="117" height="55" field="0" style="fill-opacity:0.1"/>
          <rect x="164" width="117" height="55" field="0" style="fill-opacity:0.1"/>
          <rect x="117" width="47" height="55" field="0" style="fill-opacity:0.1"/>
        </g>
        <g transform="translate(12,-11)">
          <g transform="translate(608)">
            <text y="6">81</text>
          </g>
          <g transform="translate(584)">
            <text y="6">82</text>
          </g>
          <g transform="translate(561)">
            <text y="6">83</text>
          </g>
          <g transform="translate(467)">
            <text y="6">87</text>
          </g>
          <g transform="translate(444)">
            <text y="6">88</text>
          </g>
          <g transform="translate(397)">
            <text y="6">90</text>
          </g>
          <g transform="translate(374)">
            <text y="6">91</text>
          </g>
          <g transform="translate(280)">
            <text y="6">95</text>
          </g>
          <g transform="translate(257)">
            <text y="6">96</text>
          </g>
          <g transform="translate(164)">
            <text y="6">100</text>
          </g>
          <g transform="translate(140)">
            <text y="6">101</text>
          </g>
          <g transform="translate(117)">
            <text y="6">102</text>
          </g>
          <g transform="translate(93)">
            <text y="6">103</text>
          </g>
          <g transform="translate(0)">
            <text y="6">107</text>
          </g>
        </g>
        <g transform="translate(12,27)">
          <g>
            <g transform="translate(631)">
              <text y="6">1</text>
            </g>
            <g transform="translate(608)">
              <text y="6">1</text>
            </g>
            <g transform="translate(584)">
              <text y="6">1</text>
            </g>
            <g transform="translate(561)">
              <text y="6">1</text>
            </g>
          </g>
          <g transform="translate(514)">
            <text y="6">
              <tspan>RegDst</tspan>
            </text>
          </g>
          <g>
            <g transform="translate(444)">
              <text y="6">0</text>
            </g>
            <g transform="translate(421)">
              <text y="6">1</text>
            </g>
            <g transform="translate(397)">
              <text y="6">0</text>
            </g>
          </g>
          <g>
            <g transform="translate(374)">
              <text y="6">0</text>
            </g>
            <g transform="translate(351)">
              <text y="6">0</text>
            </g>
            <g transform="translate(327)">
              <text y="6">0</text>
            </g>
            <g transform="translate(304)">
              <text y="6">0</text>
            </g>
            <g transform="translate(280)">
              <text y="6">0</text>
            </g>
          </g>
          <g>
            <g transform="translate(257)">
              <text y="6">0</text>
            </g>
            <g transform="translate(234)">
              <text y="6">0</text>
            </g>
            <g transform="translate(210)">
              <text y="6">0</text>
            </g>
            <g transform="translate(187)">
              <text y="6">0</text>
            </g>
            <g transform="translate(164)">
              <text y="6">0</text>
            </g>
          </g>
          <g>
            <g transform="translate(140)">
              <text y="6">0</text>
            </g>
            <g transform="translate(117)">
              <text y="6">0</text>
            </g>
          </g>
          <g transform="translate(47)">
            <text y="6">
              <tspan>QID</tspan>
            </text>
          </g>
        </g>
        <g transform="translate(12,63)"/>
      </g>
    </g>
  </g>
</svg>

